<svg xmlns="http://www.w3.org/2000/svg" viewBox="0 0 648 648"><defs><style>.cls-1{fill:#fff;}</style></defs><g id="Layer_2" data-name="Layer 2"><g id="Layer_2-2" data-name="Layer 2"><path class="cls-1" d="M73,202.82c0-51.8,39.38-86.95,85.79-86.95,49.93,0,72,32.11,77.35,56l-34.92,11C198.67,171.42,188.12,152,158.82,152c-22.27,0-47.35,15.94-47.35,50.86,0,31.18,23,49.23,47.82,49.23,28.83,0,40.31-19.22,43.6-31.18L238.28,231c-5.39,23-27.42,58.13-79,58.13C111.47,289.08,73,254.62,73,202.82Z"/><path class="cls-1" d="M333.91,204.23a48.16,48.16,0,0,0-11.25-1.17c-14.3,0-27.19,8.44-27.19,31.64v50.86H259.84V169.07H294.3v15.71c6.09-13.13,20.86-16.88,30.24-16.88a35.3,35.3,0,0,1,9.37,1.17Z"/><path class="cls-1" d="M460,252.05c-5.63,20.15-24.14,37-53.68,37-32.11,0-60.71-23-60.71-62.11,0-37.51,27.9-61.41,58.13-61.41,36.1,0,58.37,22.26,58.37,59.77a73,73,0,0,1-.71,11H380.33c.7,13.13,12.65,22.5,26.48,22.5,12.89,0,20.16-6.09,23.44-15.23Zm-32.35-38.68c-.47-8.91-6.56-19.69-23.44-19.69-15,0-22.5,11-23.2,19.69Z"/><path class="cls-1" d="M512.52,218.29,540,214.07c6.32-.93,8.43-4,8.43-8,0-6.8-5.86-12.66-17.11-12.66-12.42,0-19.22,8.44-19.92,17.11l-30.94-6.33c1.41-16.64,16.88-38.67,51.1-38.67,37.73,0,51.56,21.09,51.56,45v57a114.69,114.69,0,0,0,1.41,18H552.37c-.24-.93-1.17-5.15-1.17-13.12-6.1,9.84-17.35,16.4-32.82,16.4-25.55,0-40.31-16.87-40.31-35.39C478.07,232.83,493.3,221.11,512.52,218.29Zm35.86,21.57V234.7l-22,3.52c-7.5,1.17-13.13,4.68-13.13,12.89,0,6.09,4,11.95,13.83,11.95C537.6,263.06,548.38,257.91,548.38,239.86Z"/><path class="cls-1" d="M145.65,531.41H117.47V397.27H71.39V377q19.36-.28,32.58-10.12a41.4,41.4,0,0,0,16.44-25.68h25.24Z"/><path class="cls-1" d="M300.33,520.4q-18.49,15.4-50.48,15.41T199.36,520.4q-18.5-15.4-18.49-39.19A45,45,0,0,1,191,452a55.12,55.12,0,0,1,26-17.76,47.28,47.28,0,0,1-22.3-17.17,45.71,45.71,0,0,1-8.81-27.44q0-23.19,18.2-38t45.79-14.83q27.59,0,45.79,14.83t18.19,38a45.88,45.88,0,0,1-8.8,27.29,47,47,0,0,1-22.31,17.32,52.91,52.91,0,0,1,26,17.61,45.54,45.54,0,0,1,10.12,29.35Q318.82,505,300.33,520.4Zm-79.69-18.64q10.71,9.11,29.21,9.1t29.2-9.1a28.77,28.77,0,0,0,10.72-22.89,29.52,29.52,0,0,0-10.72-23.34q-10.71-9.24-29.2-9.24t-29.21,9.24a29.51,29.51,0,0,0-10.71,23.34A28.76,28.76,0,0,0,220.64,501.76Zm29.21-79.54q15.25-.3,25.24-8.81t10-22.31a28.2,28.2,0,0,0-9.69-21.72q-9.67-8.81-25.53-8.8t-25.54,8.8a28.2,28.2,0,0,0-9.68,21.72q0,13.8,10,22.31T249.85,422.22Z"/><path class="cls-1" d="M345.24,436.3q0-43.73,17-69,20.25-30.52,58.41-30.53t58.41,30.53q17,25.25,17,69t-17,69q-20.25,30.54-58.41,30.53t-58.41-30.53Q345.25,480.05,345.24,436.3Zm28.47,0q0,44,16.74,61.64,11.73,12.33,30.23,12.33t30.23-12.33q16.72-17.61,16.73-61.64t-16.73-61.63q-11.75-12.33-30.23-12.33t-30.23,12.33Q373.71,392.28,373.71,436.3Z"/><path class="cls-1" d="M648,648H0V0H648ZM30,618H618V30H30Z"/></g></g></svg>