<svg xmlns="http://www.w3.org/2000/svg" viewBox="0 0 1303.37 740.85"><defs><style>.cls-1{fill:#0c0b0a;}.cls-2{fill:#a56d46;}.cls-3{fill:#fdfdfd;}.cls-4{fill:#555352;}.cls-5{fill:#d3dbd8;}.cls-6{fill:#c8c4b7;}.cls-7{fill:#2e2e2e;}.cls-8{fill:#7d4f2e;}.cls-9{fill:#67645f;}.cls-10{fill:#fcfcfc;}.cls-11{fill:#5a3912;}.cls-12{fill:#030303;}.cls-13{fill:#c79880;}.cls-14{fill:#6c3833;}.cls-15{fill:#aaa28d;}.cls-16{fill:#887f72;}</style></defs><g id="Layer_2" data-name="Layer 2"><g id="Layer_1-2" data-name="Layer 1"><path class="cls-1" d="M252.06,686.55c-3.47,8.25-7.6,16.19-14,22.54-14.64,14.51-32.51,20.4-53,19.63-30.88-1.15-60.27-9.18-89.26-19-34.94-11.81-58.77-35.21-73.35-69.15a276,276,0,0,1-21-84.54c-3.93-42.71.57-84.8,9.66-126.43C20.68,385.71,30,341.8,34.59,297c2.46-23.71,4.93-47.44,8.21-71,5.32-38.2,16.09-74.63,38.24-106.83,2.73-4,3.27-6.44.52-10.91-6.17-10-6.62-21.14-2.62-32.11,4.92-13.49,23.3-20.28,35.87-13.59,3.29,1.75,6.26,4,7.36,7.76,1,3.29,2.18,2.68,4.35,1a157.42,157.42,0,0,1,51.8-26c19.31-5.61,38.83-10.21,59.17-10,23.52.22,46.09,5.15,67.95,13.57,2.52,1,3.59,1.21,5-1.82C315.94,35,337.16,27.57,349,33.59c8.72,4.46,12.18,12.41,12.13,21.79-.05,7.89-1.74,15.53-6.59,22-1.79,2.4,0,3.19,1.26,4.33a157.21,157.21,0,0,1,44.44,67.49A368,368,0,0,1,415.42,213c3.91,25.52,8.15,51,12.32,77,7.26-6.21,14.12-12.43,21.85-17.54,1.2-.79,1.3-2.25,1.48-3.55,5.18-36,15.2-70.78,27.52-104.79,15.47-42.68,40.57-79,76.72-107.12,2.23-1.73,2.46-3,1.49-5.32-6.32-15.2,1-36,13.24-46.57,10.47-9,25.93-5.73,33,7.09,2.5,4.53,4.5,9.36,4.42,14.64-.05,3.22,1.3,3,3.6,2.33,38.07-11.46,75.67-8.35,113.22,3a154.79,154.79,0,0,1,65.08,39.07c.45.44,1,.8,1.57,1.29,1.62-2.51,3-5,4.68-7.17,6.75-8.64,16-11.37,26.14-7.86,9,3.13,15.92,12.94,16.4,22.44.64,12.5-5.71,21.95-13.19,30.79-2.83,3.34-3.24,5.67-1.41,9.84,8.22,18.66,12.23,38.49,15.57,58.51,3.51,21.05,2.94,42.33,4.44,63.49.93,13.17-.63,26.59,3.57,39.47.71,2.18,1.11,4.5,3.06,6.51a26.3,26.3,0,0,0,1-8.46c.22-16.26.73-32.52,2.86-48.66,3.81-28.77,12.28-56,27.56-80.9,1.86-3,1.68-4.6-.87-7-11.57-10.9-8.89-29.59-1.64-37.8,9.41-10.64,25.63-12.22,37.45-3.39,3,2.24,4.83,2.76,8.25.14,25.64-19.63,54.58-31.43,86.82-34.21,28.17-2.44,55.51,2.41,82.27,11a3.71,3.71,0,0,1,.46.19c7.23,3.47,12.92,3.7,19.91-2.7,12.06-11,37.92-8.42,44.69,8.75,3,7.73,3.51,15.51-.79,23-1.1,1.9-1.58,3.11.48,4.95,21.38,19.17,34.08,43.67,43.64,70.3,15.15,42.18,24,85.86,32.63,129.69,5.57,28.39,15.38,55.6,25.18,82.77,11.09,30.78,21.31,61.83,27.13,94.13,3.86,21.45,6.4,43,4.57,64.86a8.92,8.92,0,0,0,2.94,7.86c15.22,14.7,10.24,50.22-13.61,54.47-4.65.83-6.31,3.6-8.14,7.37-8.92,18.47-22.59,32.92-38.48,45.7-25.43,20.45-54.55,34.09-84.17,46.88-16,6.91-32,13.9-48.8,18.84-15.18,4.47-30.78,5.82-46.34,3.07-15.29-2.72-26.84-12-34.16-25.29-4.28-7.76-9.84-7.45-16.75-7.26-33,.91-64.24,11.17-96.24,17.39-16.41,3.19-33,6.34-49.8,5.21A97.14,97.14,0,0,1,804.07,709c-1.19-.92-2.17-3-4.06-1-10.82,11.41-25.31,13.94-39.8,16.23A188.34,188.34,0,0,1,676,718.6c-7.4-2.21-14-6.17-20.33-10.41-2.2-1.47-3.49-1.25-5.53.25Q602,743.63,542.43,739.59c-11-.74-21-4.46-30.43-10.08-6.06-3.62-9-9.64-11.83-15.65-7.14-15-11.33-31.15-16.71-46.83-.11-.31-.18-.64-.26-1-2.36-10.47-6.5-18.62-17.88-23.09-8.73-3.43-14.13-12.3-18.76-20.73-.69-1.27-.92-2.86-2.64-3.87-6.65,16-15.41,30.69-25.14,44.89-15.84,23.11-38.15,37.51-63.26,48.4-16.11,7-32.46,12.61-50.36,12.48-25.12-.18-42.59-12-51.59-35.49C253.27,687.89,253.2,687,252.06,686.55Zm416.15.09c-1.07.29-1,1.25-1.15,2l-4.73,8.07a22.31,22.31,0,0,1-1.87,2.32c-3.21,3.06-3.38,5.3,1,7.62,5.73,3,11.24,6.4,17.54,8.16,29.75,8.3,59.74,9.6,90,3.13,9.16-2,18.06-4.25,25.26-10.85,2.49-2.29,3.32-4,.84-6.83-6.58-7.61-11.2-16.42-15.07-25.65-.05-.57-.23-1-.91-1h.13c.12-2.26-1-4.19-1.77-6.18-8.75-22.45-8.48-44.8.6-67.07,5.6-13.77,19.86-23.46,34.71-23.41,12.47,0,24.55,2,35.38,8.65,3.39,2.07,5.88.21,8.19-1.25,2.11-1.34-.17-3.32-.76-4.8-6.56-16.41-8.95-33.67-10.36-51.08-.3-3.63-1.43-5.46-4.58-7.26-13.83-7.91-24.41-18.94-30.08-34.07-9-24.08-5.66-47.56,5-70.1,6.89-14.56,15.09-28.5,22.85-42.64a77.64,77.64,0,0,0,8.92-27.83c1.41-11,1.79-22.16,2.3-33.25.27-5.95,2.25-12.28-1.19-18.07a51.41,51.41,0,0,1-6.43-17.2c-2.91-16.06-3.08-32.41-3.57-48.62a417.87,417.87,0,0,0-8.32-73.64c-8.46-40.19-29.06-72.61-62.11-96.75C734,34.12,694.84,26.15,653.23,26.82c-27.9.45-53.36,8.81-77.37,22-36.13,19.91-60.41,51.2-79.66,86.55-18.7,34.34-27.21,72.36-36.7,109.9-2.84,11.25-4.27,22.85-6.36,34.29-.28,1.55.05,3.95-2.23,3.74s-1.39-2.55-1.55-4.1c0-.18-.41-.32-.7-.54a180.33,180.33,0,0,0-17.26,14.23c-2.11,1.87-2.93,3.35-2.39,6.27q7.59,41.18,14.81,82.41c1.81,10.35,3.26,20.77,5.07,32.42,4.47-7.52,8.23-13.89,12.06-20.22.71-1.17,1.21-3.31,3.12-2.34,2.18,1.12.76,2.76,0,4.22-4.07,7.63-8,15.31-12.17,22.9a11.6,11.6,0,0,0-1.34,7.66c2.66,17.23,3.92,34.64,6.25,51.9,6,44.34,2,87.84-9.53,130.84a6.5,6.5,0,0,0,.12,4.75c5.91,13.61,14.8,24.46,28.66,30.49,3.38,1.47,5.11,3.65,6.41,7,6.33,16.1,10.74,32.86,16.92,49,2.9,7.56,5.49,15.33,11,21.59,6.12,6.91,14.51,9.66,23,11.76,12.84,3.2,25.9,2.67,38.92,1a150.13,150.13,0,0,0,33.13-7.81l1-1.08v0a19.08,19.08,0,0,0,3.89-.5,138.57,138.57,0,0,0,30.56-15.56c9-5.87,17.58-12.08,21.58-22.7,2.83-7.51,2.28-9.14-4.75-13.06a27.79,27.79,0,0,0-2.72-1.22,80.74,80.74,0,0,0-29-6.28c-25.21-.85-49.77,1.45-72.68,13.13-1.34.69-2.7,1.49-4.09.08.18-2.24,2-2.84,3.61-3.73a104.44,104.44,0,0,1,26-10c4-1,4-2.64,2.94-6-1.43-4.45-4.55-7.82-8.06-12.58a10.36,10.36,0,0,1,7.4,4.17,35.3,35.3,0,0,1,5.26,9.59c.68,1.67,1.32,2.74,3.62,2.31a122.62,122.62,0,0,1,27.33-1.5c3.56.14,4.13-1.38,4-4.4-.23-5.34-2.5-9.92-4.81-14.54-.45-.89-1.61-2.18,0-3,1.19-.57,1.67.72,2.2,1.51,3.26,4.87,6.13,9.92,6.64,15.93.21,2.47.6,4.32,3.9,4.53,12.34.81,24.1,3.87,35.43,10.93-2.23-10.46-7.92-17.43-15.51-23.26-2-1.52-6.54-3-5.26-4.92,1.81-2.66,4.61,1.47,7.22,1.88a3.93,3.93,0,0,0,1.13-.24,29.87,29.87,0,0,0,0-3.9c-3.5-26.4-11.09-51.34-27.05-73.08-22.92-31.22-53.26-45.49-92.24-39.92-8.95,1.29-17.62,3.21-25.9,6.89-1,.46-2.62,1.93-3.38.09s1.48-1.78,2.44-2.51a7.69,7.69,0,0,1,1.38-.57c16.06-7.72,33.18-8.93,50.63-8.55a72.46,72.46,0,0,1,33.38,8.93c27.1,14.69,43.93,38,55.08,66,5.18,13,7.64,26.68,10.2,41.78,3.09-9.61,6-17.87,9.29-26,14.73-35.9,40.4-60,77.27-71.95,16.69-5.41,33.78-8.48,51.45-6.72,1.19.12,3.24-.33,3.22,1.45s-2,1.31-3.22,1.3a149.44,149.44,0,0,0-20.39,1c-59.63,7.55-97.06,42.88-112.55,100.16-.62,2.33-.16,2.87,2.12,3s5-1.09,7.1,1.59c-2.73,2.1-6.11,1.39-9,2.44-5.11,1.86-5.29,2.42-1.73,6.33,1.44,1.58,3.07,3.25,3.8,5.19,1.92,5.09,5.58,2.73,8.76,2.42,3.71-.36,3.11-3.44,3.17-5.72a32.64,32.64,0,0,1,1.62-9.29c.48-1.47.8-4,2.77-3.55,2.27.52,1,2.82.63,4.27a57.84,57.84,0,0,0-1.21,7.86c-.37,4,.76,5.69,5.13,5.35,10.93-.87,21.88-.4,32.81.24,3.29.19,4.64-1.08,4.45-4.25s.91-5.89,1.63-8.78c.32-1.23.51-3,2.24-2.77,1.89.27,1.25,2.09,1.12,3.29-.24,2.31-.74,4.59-1.05,6.89-.6,4.35.57,6.42,5.73,6.74,10.76.66,21.48,2.23,31.13,7.73-.89,2.54-2.61,1.76-4.47,1.27-4.82-1.24-9.64-2.76-14.56-3.32-11-1.25-22.12-2.34-33.22-2.82-13.28-.58-26.6-.59-39.77,1.81-1.26.23-3.1.13-2.52,2.13,1.75,6,.46,11.86-.38,17.76Zm610.84-73.59c12.65-1.13,18.31-12.23,19.68-24.56.92-8.37-1.63-15.81-7.77-23.07-1.94,17.05-8,31.86-12.41,47.13l-.28.74ZM93.66,67.07a3,3,0,0,0-1,.13c-15.69,8-13.32,31.43-6.13,41.3,1.23,1.69,1.79.64,2.54-.31L99.89,94.66c5.15-4.85,10.19-9.82,15.48-14.53,4.77-4.25,4.72-8.73-.67-12.45C107.87,63,100.78,63.56,93.66,67.07ZM344.58,36.92c-11.08-2.23-20.63.78-28.35,8.9-4,4.22-3.48,5.86,1.58,8.68,1.57.88,3.16,1.73,4.74,2.59,9.46,5.78,18.72,11.85,27.16,19.07,5.67-7.31,8.29-16.79,6.61-25.34C355,44.16,351.8,38.76,344.58,36.92ZM850.39,622.58c-2,2-3-.06-3.94-1.13-2.21-2.46-4.23-5.09-6.3-7.68-9.7-12.13-21.47-21.11-37-24.52-8.5-1.87-14.25.71-18.52,8.45-5.65,10.25-7.73,21.42-8.49,32.92-.92,13.87,2.4,27,7.38,39.76,4.25,10.87,9.39,21.32,17.67,29.76,12.53,12.76,28.54,18.8,45.4,23.4,5.88,1.6,9.76-.51,13-4.38,3.4-4,6.34-8.58,7.34-14,.3-1.56.66-2.9,2.19-3.64,1.32.36,2.08,1.26,1.72,2.58-.95,3.5-1.13,7.21-3.15,10.43-2.16,3.45-4.09,7-6.34,10.93,2.38,0,4.21.16,6,0A475.74,475.74,0,0,0,933.5,714c25.32-6.3,50.72-12,77.06-11.3,3.45.09,3.34-1.1,2.27-3.78-8.11-20.39-11.86-41.45-8.75-63.36.87-6.2,2.67-12.27,4-18.4,3.76-4.2,5.42-9.82,9.43-13.86,15.35-15.5,33.57-17.95,53.66-11.75,2.51.77,4.47,1.5,7.23-.52,30.36-22.18,63.65-24.72,98.79-14.18,2.81.84,5.23,3,8.43,2.51,1.55,2.17,4.35,2.16,6.3,3.61,1.06.8,3.47.94,2.38,3-.85,1.59-2.39.13-3.53-.28-9.84-3.54-19.67-6.77-30.12-8.43-23-3.65-45-1.36-66,8.57a47.92,47.92,0,0,0-13.69,9.35c5.27,2.3,10.13,4.41,14.5,7.44.93.64,2.46,1.18,1.7,2.54s-2,.53-3.13.06c-4.71-2.07-9.36-4.28-14.16-6.13-7.78-3-15.58-6.09-24.36-5.44.38,1.65,1.51,1.75,2.34,2.14a71.56,71.56,0,0,1,25.2,19.89c2.58,3.21,6.58,5.81,6.3,10.78a2.53,2.53,0,0,1-3-1.1c-5.26-8.33-13.11-13.9-20.85-19.6-8.3-6.12-17.47-9.3-27.79-8.4-10.5.91-17.06,7.49-21.66,16.28-9.45,18-9.09,37.38-6.53,56.78,1.48,11.23,5.46,21.94,10.11,32.17,6.66,14.62,16.64,26.28,32.72,31.36,7.12,2.25,14.49,1.14,21.7,1.87,12.93,1.31,21-4.67,26.22-15.81,1-2.26,2-4.56,3-6.83.74-1.65,1.27-3.55,3.65-3.51,1,1,.67,2,.32,3.2a62.07,62.07,0,0,1-6,14.16c-.78,1.3-3,2.64-1.71,4.22s3.09.09,4.62-.41c14.88-4.84,29.26-10.94,43.59-17.16,28.23-12.25,56.18-24.94,80.68-44.12,16.57-13,31.53-27.22,40.4-46.64,13.87-30.39,21.42-62.17,18.76-95.78-.48-6.11-.13-12.51-2.9-18.33.8-1.56.5-3.13.27-4.79A309.34,309.34,0,0,0,1274,453.63c-3.65-11.79-6.26-23.92-11.22-35.3-.28-1.11-.45-2.26-.83-3.33-5.55-15.8-11.25-31.55-16.66-47.39a454.69,454.69,0,0,1-15-53.11c-1.45-6.87-2-14-4.71-20.53a14.84,14.84,0,0,0-.2-6.43c-7.59-37.78-16.72-75.15-30.61-111.19-10.77-28-26.54-52.3-51.78-69.6-16.93-11.61-35.88-18.65-55.23-24.72-23.63-7.4-47.88-11.52-72.63-9.65-42.53,3.22-78.56,20.89-107.92,51.67C885,147.38,871,175.34,863.14,206.54c-6,23.84-6.89,48.17-7.85,72.52-.3,7.78-.24,15.57-.79,23.36-.79,11.07-.84,22.2-1.2,33.3-1.24,9.19-1.45,18.57-4.82,27.38-5.72,15-13.75,28.79-21.75,42.57-11.54,19.88-18.53,40.65-15.75,64,2.17,18.27,10.71,32.94,25.55,43.3,21.36,14.9,45.87,18.57,70.56,13,31.09-7.07,57.38-23.28,76.59-49.55,9.58-13.1,16.37-27.33,17.19-43.89.24-4.92-.74-9.64-1.82-14.52a125,125,0,0,1-15.45,17.86c-1,1-2.23,2.94-3.64,1.81-2.07-1.67.52-3,1.32-4a162.57,162.57,0,0,0,14-19.38c1.71-2.81,1.67-5,.12-7.78a41.73,41.73,0,0,0-16.64-16.73c-3.18-1.75-5.2-1.61-7.64,1.2-4.69,5.38-9.73,10.47-14.67,15.63-.74.77-1.72,2-2.89.77-.85-.92.25-1.85.75-2.61a34.92,34.92,0,0,1,2.52-3.08Q962.92,394.35,969,387l-1-1.26c-37.83-1.23-62.26,22.12-85,48.34-1.15-1.43-.84-2.21-.32-2.88,15-19.76,32.58-36.37,55.95-45.94,1.32-.54,3.07-.47,3.38-2.43,2.32.39,4.56-.09,6.86-.41,13.38-1.86,26.47-1.87,37.84,7.07,1.56,1.22,3,2.69,5.1,2.86-.2,1.17.66,1.8,1.28,2.55,14.08,17,15.06,36.55,8.91,56.41-6.84,22-21.24,39.3-39.18,53.33-12.06,9.43-26.06,15.79-39.93,22.2-1.4.65-4,.14-3.87,3-6.2-1.2-11.93,1.65-18,2-16.37,1-32.56.58-48.14-5.31-2.89-1.09-3.41-.86-3.13,2.58a220.91,220.91,0,0,0,5.45,34.82c1,4.1,1.64,8.52,4.93,11.74-.57,3.21,1.2,5.81,2.51,8.41,7,14,15.31,27.15,27.31,37.62,1.53,1.33,5.19,3.06,3.32,5.14-2.05,2.28-3.74-1.42-5.32-2.71-11-9.07-19.57-20.22-26.56-32.63-2-3.5-2.07-3.44-6.26-.4,1.48,1.24,2.91,2.37,4.24,3.6.63.58,1,1.45.23,2.18s-1.53.06-2.11-.5c-10-9.73-22.68-12.73-35.87-14.26-6.41-.75-13-1.51-19.81,2a65.25,65.25,0,0,1,38.33,24C843.81,612.75,848.57,616.64,850.39,622.58ZM141.35,66.7l-.11.11c-33.53,20.54-57.25,49.67-73.5,85-14.37,31.3-20.2,64.79-23.72,98.76-6.28,60.58-15.46,120.67-28.69,180.16C6.47,470.62,2.49,511,5.54,551.91,8,585,15.7,616.62,30.21,646.63,42.47,672,61,690.7,86.91,701.39a306,306,0,0,0,87.51,22.15c2.57.25,5.35,1.34,8.23-.16a93.8,93.8,0,0,1-7.75-5.89c-5.58-5.22-10.54-10.93-12.2-18.75,2.58-.47,2.88,1.9,3.79,3.26,2.49,3.74,4.93,7.5,8.3,10.54,7.69,6.92,16.84,12.23,27,10.52,24.49-4.1,40.3-19.12,47.71-42.77,7-22.28,5-44.61-.47-66.82-3.93-16-20.3-26.68-32.67-27.67-20.05-1.59-36.54,5.1-48.61,21.58-1,1.36-1.77,3-3.9,2-.5-2.3,1.17-3.71,2.27-5.28,14.37-20.59,38.62-27.79,62-19.78.49.24,1,.93,1.54.29s-.2-1-.63-1.29c-4.21-3.59-8.72-6.63-14.23-7.88-29.32-8.17-52.47,2.18-72,24a39.31,39.31,0,0,1,10.36-14.8c4.83-4.55,5-3.83-1-7.14-15-8.32-30.95-12.66-48.27-9.4-1.18.23-2.53.83-3-.61-.51-1.75,1.21-1.56,2.24-1.81,18.75-4.48,36.41-1.34,52.53,8.81,4.41,2.78,7.09,3,11.59.67,18.09-9.32,36.87-9.49,55.24-1.29,13.94,6.23,22.55,18.06,28.55,31.8.28-.11.51-.14.57-.25a13.9,13.9,0,0,0,.79-1.76c3.83-11.53,9.4-22.08,18.87-30,16.4-13.65,34.52-20.15,55.72-12.15a7.56,7.56,0,0,0,3.29.65,55.65,55.65,0,0,1,31.43,7.67c4.16,2.44,8,5.39,10.35,10.14-9.93-7-20.47-12-32.84-12.51,14.64,10.91,23.48,25.4,28.29,42.52-2.35-1.46-2.36-1.46-3.36-3.81-4.31-10.2-9.77-19.72-18.1-27.13-22.23-19.76-43.87-22.4-67.59-5.42-6.79,4.61-11.55,10-12.69,14.64,8-6.48,17.23-8.91,26.72-10.69C310.76,577,324.88,585.3,337,598c1.32,1.37,2.7,2.74.38,4.42-1.85-.51-2.95-2-4.27-3.22-4.66-4.27-9.41-8.43-15.06-11.39-17.92-9.4-37.73-6.58-55,8-7.4,6.23-9.29,14.61-7.82,23.7,2.7,16.75,4.5,33.49,1.52,50.38-.7,3.93-1.6,7.72-.63,11.79a52,52,0,0,0,14.79,26c12.39,11.94,39.49,17.63,54.79,5.73a67.16,67.16,0,0,0,20.52-25.9c.72-1.61.91-3.7,3.37-3.74,1.17,1.29.41,2.64.13,4a71,71,0,0,1-19,28.07,147.65,147.65,0,0,0,35.93-14.56,107.28,107.28,0,0,0,20.69-11.91c22.23-16.06,36.32-38.57,48-62.61,14.31-29.37,17.1-61.45,19.69-93.36,1.36-16.7-.6-33.45-2.19-50.15-3.34-35-8.31-69.73-14-104.38C432.45,340,426,301.22,419.31,262.52c-5.69-32.82-9.84-65.92-18.86-98.12-9.49-33.93-26.7-62.87-54.16-85.21-42.23-34.37-90.21-46.34-143.63-35.52-20.39,4.14-40.3,9.91-58.11,21.27A5.55,5.55,0,0,0,141.35,66.7ZM559.18,39.33a25,25,0,0,0,1.52,10.28c.79,2.22,1.61,2.33,3.47,1.08a157.55,157.55,0,0,1,36-17.91c1.64-.57,3-1.22,3-3.38-.09-9.16-3.08-17-10.79-22.31a15.12,15.12,0,0,0-18.91,1.15C564.14,16.52,559.31,26.87,559.18,39.33Zm274.8,42c0-9.41-7.23-18.45-16.41-20.29C808,59.12,800.1,63.69,795.74,73.4c-1,2.31-.78,3.84,1,5.75a164.4,164.4,0,0,1,18.86,25c4,6.53,3.72,6.41,8.64.36C829.68,97.79,833.45,90.44,834,81.33ZM898.93,101c-7.4.81-15.24,3.76-19.31,12.28a24.4,24.4,0,0,0,4.26,27.27c1.7,1.77,2.75,2,4.22-.12a176.7,176.7,0,0,1,26.57-30.19c1.61-1.44,1.79-2.55-.12-3.9C910.28,103.32,905.82,100.89,898.93,101Zm257.21-4.72c.06-9.81-4-16.81-12.33-19.53-10.54-3.44-20.61-2.5-29.41,5.2-2.7,2.35-3.4,3.52.68,5.11a143.31,143.31,0,0,1,32.82,17.64c1.61,1.17,3.11,3.92,5.29,2.65s2.82-4,2.94-6.6C1156.19,99.26,1156.14,97.77,1156.14,96.28ZM1052.5,592.72l-.93.64c.27.12.57.39.82.34a3.5,3.5,0,0,0,1-.52Zm-821.09-7.56-.33-.32a2.47,2.47,0,0,0-.3.61c0,.07.19.2.29.31Z"/><path class="cls-2" d="M510.37,721.8c-5.52-6.26-8.11-14-11-21.59-6.18-16.14-10.59-32.9-16.92-49-1.3-3.32-3-5.5-6.41-7-13.86-6-22.75-16.88-28.66-30.49a6.5,6.5,0,0,1-.12-4.75c11.57-43,15.53-86.5,9.53-130.84-2.33-17.26-3.59-34.67-6.25-51.9a11.6,11.6,0,0,1,1.34-7.66C456,411,460,403.33,464,395.7c.79-1.46,2.21-3.1,0-4.22-1.91-1-2.41,1.17-3.12,2.34-3.83,6.33-7.59,12.7-12.06,20.22-1.81-11.65-3.26-22.07-5.07-32.42q-7.23-41.24-14.81-82.41c-.54-2.92.28-4.4,2.39-6.27a180.33,180.33,0,0,1,17.26-14.23c.29.22.68.36.7.54.16,1.55-.77,3.89,1.55,4.1s1.95-2.19,2.23-3.74c2.09-11.44,3.52-23,6.36-34.29,9.49-37.54,18-75.56,36.7-109.9,19.25-35.35,43.53-66.64,79.66-86.55,24-13.24,49.47-21.6,77.37-22,41.61-.67,80.73,7.3,114.89,32.24,33,24.14,53.65,56.56,62.11,96.75a417.87,417.87,0,0,1,8.32,73.64c.49,16.21.66,32.56,3.57,48.62a51.41,51.41,0,0,0,6.43,17.2c3.44,5.79,1.46,12.12,1.19,18.07-.51,11.09-.89,22.2-2.3,33.25a77.64,77.64,0,0,1-8.92,27.83c-7.76,14.14-16,28.08-22.85,42.64-10.68,22.54-14.06,46-5,70.1,5.67,15.13,16.25,26.16,30.08,34.07,3.15,1.8,4.28,3.63,4.58,7.26,1.41,17.41,3.8,34.67,10.36,51.08.59,1.48,2.87,3.46.76,4.8-2.31,1.46-4.8,3.32-8.19,1.25C837.41,579,825.33,577,812.86,577c-14.85-.05-29.11,9.64-34.71,23.41-9.08,22.27-9.35,44.62-.6,67.07.77,2,1.89,3.92,1.77,6.18-5.79.23-10.67-3.36-16.28-3.87-9.65-5.5-20.37-7.07-31.13-7.73-5.16-.32-6.33-2.39-5.73-6.74.31-2.3.81-4.58,1.05-6.89.13-1.2.77-3-1.12-3.29-1.73-.26-1.92,1.54-2.24,2.77-.72,2.89-1.81,5.72-1.63,8.78s-1.16,4.44-4.45,4.25c-10.93-.64-21.88-1.11-32.81-.24-4.37.34-5.5-1.35-5.13-5.35a57.84,57.84,0,0,1,1.21-7.86c.33-1.45,1.64-3.75-.63-4.27-2-.46-2.29,2.08-2.77,3.55A32.64,32.64,0,0,0,676,656c-.06,2.28.54,5.36-3.17,5.72-3.18.31-6.84,2.67-8.76-2.42-.73-1.94-2.36-3.61-3.8-5.19-3.56-3.91-3.38-4.47,1.73-6.33,2.87-1,6.25-.34,9-2.44-2.08-2.68-4.78-1.47-7.1-1.59s-2.74-.66-2.12-3c15.49-57.28,52.92-92.61,112.55-100.16a149.44,149.44,0,0,1,20.39-1c1.22,0,3.2.51,3.22-1.3s-2-1.33-3.22-1.45c-17.67-1.76-34.76,1.31-51.45,6.72-36.87,12-62.54,36-77.27,71.95-3.33,8.1-6.2,16.36-9.29,26-2.56-15.1-5-28.79-10.2-41.78-11.15-28-28-51.29-55.08-66a72.46,72.46,0,0,0-33.38-8.93c-17.45-.38-34.57.83-50.63,8.55a7.69,7.69,0,0,0-1.38.57c-1,.73-3.16.79-2.44,2.51s2.34.37,3.38-.09c8.28-3.68,17-5.6,25.9-6.89,39-5.57,69.32,8.7,92.24,39.92,16,21.74,23.55,46.68,27.05,73.08a29.87,29.87,0,0,1,0,3.9,3.93,3.93,0,0,1-1.13.24c-2.61-.41-5.41-4.54-7.22-1.88-1.28,1.87,3.28,3.4,5.26,4.92,7.59,5.83,13.28,12.8,15.51,23.26-11.33-7.06-23.09-10.12-35.43-10.93-3.3-.21-3.69-2.06-3.9-4.53-.51-6-3.38-11.06-6.64-15.93-.53-.79-1-2.08-2.2-1.51-1.65.77-.49,2.06,0,3,2.31,4.62,4.58,9.2,4.81,14.54.13,3-.44,4.54-4,4.4a122.62,122.62,0,0,0-27.33,1.5c-2.3.43-2.94-.64-3.62-2.31a35.3,35.3,0,0,0-5.26-9.59,10.36,10.36,0,0,0-7.4-4.17c3.51,4.76,6.63,8.13,8.06,12.58,1.07,3.33,1.07,5-2.94,6a104.44,104.44,0,0,0-26,10c-1.59.89-3.43,1.49-3.61,3.73-10.46,3-19,9.22-26.78,16.55C515,703.11,509.5,711,510.37,721.8ZM653.55,295.93c30.88,0,52.81-18.78,56.87-44.87,1.36-8.79-1.48-14.09-9.77-17.22q-33.12-12.5-66.35-24.7c-8.86-3.25-17.34-7.58-27-8.33-8-.62-14.58,2.33-18,9.58a30.31,30.31,0,0,0-2.59,16c1.11,11.13,5.07,21.27,10.26,31C610,282,630.9,293.88,653.55,295.93Zm16.84-106.77c4.05.38,8.84-.3,13.56-1.22,4.89-1,9.39-2.95,10.81-8.31,1.47-5.55-.65-9.89-5.07-13.55-9.7-8-21-11.75-33.29-13.15-7.44-.85-14.55-.91-21.16,3.16-8.54,5.26-9.07,15.15-1.34,21.55C644.3,186.27,656.45,189.17,670.39,189.16Zm62.69-28.54a10.77,10.77,0,0,0,10.59-9.88c.26-5.2-4.53-10.3-9.89-10.54a10.22,10.22,0,1,0-.7,20.42ZM616.22,127.15a10.24,10.24,0,1,0-20.48.07,10.24,10.24,0,0,0,20.48-.07Zm134.86,92.7c0-2,0-4,0-6a47.11,47.11,0,0,0-9.72-28.2c-.57-.76-1.12-2-2.27-1.48-1.38.61-.53,1.7,0,2.45,7.74,11.16,8.44,23.74,7.6,36.69-.64,10-1.93,19.77-6,29-.57,1.31-2.77,3.1-.61,4.13,1.64.78,2.54-1.7,3.26-3.1A73.52,73.52,0,0,0,751.08,219.85Zm-52-68.14c-.18-.65-.17-1.08-.37-1.24-16.46-13.1-34.8-17.26-55.18-11.53-1.27.36-3.59.52-2.91,2.48.59,1.69,2.66.68,4,.39,17.78-3.82,34.26-.46,49.72,8.8C695.66,151.42,696.92,152.84,699.06,151.71Z"/><path class="cls-3" d="M349.7,687.64c.28-1.33,1-2.68-.13-4,2.29-1.15,2.4-3.55,2.76-5.53a138.89,138.89,0,0,0,1.52-33.49c-.83-13.5-5.7-25.39-11.5-37.13-1-2.06-2.05-4.67-5-5.14,2.32-1.68.94-3-.38-4.42-12.11-12.66-26.23-20.92-44.42-20.28-.23-1.73-1.57-1.6-2.85-1.94-3.68-1-7.68-.13-11.18-2,23.72-17,45.36-14.34,67.59,5.42,8.33,7.41,13.79,16.93,18.1,27.13,1,2.35,1,2.35,3.36,3.81-4.81-17.12-13.65-31.61-28.29-42.52,12.37.51,22.91,5.53,32.84,12.51-2.32-4.75-6.19-7.7-10.35-10.14a55.65,55.65,0,0,0-31.43-7.67,7.56,7.56,0,0,1-3.29-.65c-21.2-8-39.32-1.5-55.72,12.15-9.47,7.88-15,18.43-18.87,30a13.9,13.9,0,0,1-.79,1.76c-.06.11-.29.14-.57.25-6-13.74-14.61-25.57-28.55-31.8-18.37-8.2-37.15-8-55.24,1.29-4.5,2.32-7.18,2.11-11.59-.67-16.12-10.15-33.78-13.29-52.53-8.81-1,.25-2.75.06-2.24,1.81.43,1.44,1.78.84,3,.61,17.32-3.26,33.27,1.08,48.27,9.4,6,3.31,5.81,2.59,1,7.14a39.31,39.31,0,0,0-10.36,14.8c19.51-21.86,42.66-32.21,72-24-.79,1.45-2.2,1.23-3.51,1.33a92.41,92.41,0,0,0-27.51,6.07c-17.39,7-30.63,18.27-37.69,36.08a87.06,87.06,0,0,0-6.16,30c-.26,10.62-2,21.19-1.14,31.82.53,6.79-1.28,9.09-8.08,7.76a82.37,82.37,0,0,1-33.43-14.75c-10-7.41-16.76-17.83-24.55-27.25-13.5-16.31-20.62-35.8-26.83-55.67-6.77-21.65-10.66-43.76-10-66.49.24-8.75.63-17.61,2.25-26.18,1.48-7.87,2.28-16.11,6.44-23.31a177.16,177.16,0,0,0,42.72,66.47c22.33,22.07,59.12,21.87,79.87-.92,15.09-16.58,16-36.35,9.3-56.1C164.7,449.82,150,416.39,136,382.73c-.44-1.05-.47-2.73-2.38-2.42-.85,1.49.15,2.6.6,3.79,12.49,33.21,25.09,66.37,37.46,99.63,5.39,14.51,5.82,29.14-.69,43.55-2.35,5.2-2.68,5.33-6.73,1.77C159,524.4,154,519.51,153.08,512c-.11-.88.23-2.6-2.12-2.24-.29,11.43,6.65,18.92,14.3,26.08-3.65,3.94-7.11,7.76-11.76,10.2-3.89,2-7.93,5.89-12.17,4.3a23.8,23.8,0,0,1-13.89-13.55,44.86,44.86,0,0,1-1.68-5.73c-.24-.94-.08-2-1.9-2.27-1.3,10.31,4.16,17.37,11.32,23.79a15.57,15.57,0,0,1-10.53.39c-1.26-4.62-5.75-6.14-8.83-8.94-9.22-8.4-18.76-16.68-25.78-27-19.51-28.57-30.54-60.53-31.93-95a815.34,815.34,0,0,1,.5-83.75c1.27-20.15,2.6-40.28,5.14-60.31,2.27-17.88,4.86-35.71,8.69-53.33,4.35-20.07,9.21-40,15.06-59.73,10.44-35.16,25.4-67.72,51.9-94,1.13-1.12,2.77-2.11,1.84-4.18l.11-.11c1.76.68,3.13.64,3.2-1.76,17.81-11.36,37.72-17.13,58.11-21.27,53.42-10.82,101.4,1.15,143.63,35.52,27.46,22.34,44.67,51.28,54.16,85.21,9,32.2,13.17,65.3,18.86,98.12,6.72,38.7,13.14,77.46,19.51,116.22,5.7,34.65,10.67,69.4,14,104.38,1.59,16.7,3.55,33.45,2.19,50.15-2.59,31.91-5.38,64-19.69,93.36-11.71,24-25.8,46.55-48,62.61a107.28,107.28,0,0,1-20.69,11.91c-1.24-2.14-3.61-2-5.55-2.71C355.6,696.56,352.94,691.82,349.7,687.64ZM304.26,516.38q1.35-4.71,2.68-9.44c.44-1.57,1.22-3.49-1-4.12-2.54-.72-2.76,1.61-3.31,3.27-.4,1.23-.76,2.48-1.14,3.72-2.82-.63-2.59-3.19-2.95-5.12-3.76-20.42-2.65-40.72,1.44-61,.72-3.54,2.6-7,1.47-10.83a4.85,4.85,0,0,1,.13-1.49c8.85-20.37,17.3-40.9,24.57-61.9.43-1.24,2.17-3-.26-4.35a6.49,6.49,0,0,0-1.26,1.5c-14.52,35.09-30.67,69.5-44.22,105-9.78,25.63-1.83,46.85,17.7,64.59,15.25,13.86,43.49,14.91,61.5,4.07,17.39-10.47,28.63-26.6,37.69-44.14,15-29.12,23.7-60.42,30.08-92.41.2-1,.93-2.34-.84-2.85-1.51.49-1.07,1.92-1.32,2.93-5.89,24.22-12.85,48.08-22.63,71.07-7.78,18.28-16.88,35.68-31.09,49.93-2.91,0-5.4,1.31-7.94,2.5a62.34,62.34,0,0,1-25.84,5.45c-1.59,0-3.37.41-4.46-1.35,1.34-2.65,2.84-5.24,4-8,.61-1.49,2.22-3.59-.22-4.77s-2.95,1.25-3.75,2.77c-2,3.77-3.41,7.89-6.54,11-.73-2-2.73-1.53-4.17-2.07C315,527.54,308.4,523.61,304.26,516.38ZM224.7,228.15c2.49-.27,6.79-.59,11.05-1.25,11.8-1.82,23.72-3.44,34.17-9.86,7.5-4.62,7.56-13.72.31-18.81a28.23,28.23,0,0,0-10-4.22,104.74,104.74,0,0,0-36.55-1.83c-10.09,1.24-20.08,2.74-28.69,8.8-9.23,6.5-8.4,16.67,1.89,21.43A62.12,62.12,0,0,0,224.7,228.15Zm-62-10.41a8.51,8.51,0,0,0-1.5,1.1c-15,17-23.51,36.1-18,59.21,2.43,10.19,7.26,19.22,16.59,25.06,1,.59,2.06,1.82,3,.55s-.61-2-1.43-2.66a35.8,35.8,0,0,1-7.69-8.41c-9.2-14.89-9.64-30.66-4.47-46.86A75.47,75.47,0,0,1,163,221.14a3.48,3.48,0,0,0,1.13-2.63C164.12,218.23,163.35,218.06,162.74,217.74Zm3.49-46.69a10,10,0,0,0-10.13,10,10.22,10.22,0,0,0,10.43,10.3,10.6,10.6,0,0,0,10-9.82A10.43,10.43,0,0,0,166.23,171.05Zm112.88,5.79a10.18,10.18,0,0,0,10.27,10.42,10.54,10.54,0,0,0,10.13-10.21A10.39,10.39,0,0,0,289.29,167,9.92,9.92,0,0,0,279.11,176.84ZM235.3,293.28c3,3.12,6,1.35,8.4,1,9.39-1.4,17.13-5.81,22.22-14.13.61-1,2.17-2.2.48-3.31-1.3-.86-2,.74-2.61,1.53a45,45,0,0,1-8.79,8C249.23,290.41,242.53,291.86,235.3,293.28Z"/><path class="cls-3" d="M853.3,335.72c.36-11.1.41-22.23,1.2-33.3.55-7.79.49-15.58.79-23.36,1-24.35,1.86-48.68,7.85-72.52,7.84-31.2,21.82-59.16,44.07-82.49,29.36-30.78,65.39-48.45,107.92-51.67,24.75-1.87,49,2.25,72.63,9.65,19.35,6.07,38.3,13.11,55.23,24.72,25.24,17.3,41,41.63,51.78,69.6,13.89,36,23,73.41,30.61,111.19a14.84,14.84,0,0,1,.2,6.43,7.62,7.62,0,0,0-1.21,1.48c-8.92,19.3-21.88,35.48-37.76,49.51-16.26,14.36-33.59,27-53.92,35.17-4.59,1.84-9.59,2.53-13.9,5.08-2.38.8-4.5-.16-6.68-.91a90.23,90.23,0,0,0-45.95-3.34c-10.1,1.79-17.76,7.65-25.13,14.14-16.45,0-32.82-1.35-49.19-2.76-2.14-.17-3.54-1.64-5.1-2.86-11.37-8.94-24.46-8.93-37.84-7.07-2.3.32-4.54.8-6.86.41-1.34-1.49-3.33-1.3-5-1.67C904.81,373.94,875.67,361.08,853.3,335.72Zm147.75-107.44c-.35-7.87.73-15.82-1.06-23.6-6.59-28.61-28.65-38-55.42-28.92-23.41,8-35.6,27.64-42.11,50.45-4.14,14.5-1.38,28.72,8.47,40.35,11.56,13.64,28.08,21.73,51.2,13.26.43,8.55-.69,17.38,4.21,25.38,1.53-1.29.85-2.52.6-3.53-1.49-6-1.39-12.18-1.31-18.33.3-24.39,14.38-43.63,37.42-51.49a78,78,0,0,1,29.44-3.73c1.16.06,3.21.87,3.43-.79.32-2.29-2.24-1.1-3.36-1.84-.47-.31-1.3-.06-2-.11A82.15,82.15,0,0,0,1001.05,228.28ZM1147,219.77c.18-21.8-17.09-47-38.1-56.07-29.06-12.49-57.89,9.45-59.46,38.92-1.16,21.66,11.29,36.08,24.47,50.35a38,38,0,0,0,13.1,8.92C1109.63,271.65,1146.47,257.19,1147,219.77Zm-128.58,47.09a52.13,52.13,0,0,0,17.19-1.95c4.45-1.29,7.67-4.19,8-9.06.35-4.64-2.2-7.83-6.24-9.84a30.92,30.92,0,0,0-5-2c-10.59-3.05-21-1.87-31.07,2-5.94,2.27-8,5.61-7.51,10.84.39,4.13,4.76,8.3,9.83,9.15A60.46,60.46,0,0,0,1018.39,266.86Zm12.71,57.6c13.63.88,29.11-10.57,32.35-23.57.23-1,.81-2.18-.41-2.53-1.47-.42-1.77,1.09-2.2,2.12-4.75,11.5-14.1,17.54-25.32,21.36C1034,322.35,1032.2,322.17,1031.1,324.46Z"/><path class="cls-4" d="M1118.79,385.21c4.31-2.55,9.31-3.24,13.9-5.08,20.33-8.15,37.66-20.81,53.92-35.17,15.88-14,28.84-30.21,37.76-49.51a7.62,7.62,0,0,1,1.21-1.48c2.76,6.57,3.26,13.66,4.71,20.53a454.69,454.69,0,0,0,15,53.11c5.41,15.84,11.11,31.59,16.66,47.39.38,1.07.55,2.22.83,3.33-1,2.27-2,4.55-3,6.82a139.54,139.54,0,0,1-26,38.59c.55-11.15,3.87-22.15,2.28-33.45-2.7,5.2-2.48,10.88-3.07,16.34-2,18.27-8,34.5-21.61,47.45-21.16,20.19-45.88,28.95-75.11,24.05-21.55-3.62-40.93-12.35-58.94-24.4-14.48-9.68-26.53-21.49-33.47-37.93-3.83-9.08-7.5-18.07-6.87-28.18,1.66-.36,2.63.67,3.74,1.33,6,3.57,12,7.18,18,10.64,1.11.64,2.71,2.39,3.81.51.82-1.39-1.13-2.16-2.14-2.87-6.84-4.71-13.7-9.4-20.61-14-1.94-1.29-3.24-2.56-2.87-5.18a41,41,0,0,1,8-19.61c1.86-2.43,3.86-3.11,6.89-1.73,5.89,2.69,12,5,18,7.43,1.6.66,3.23,1.55,5.23-.6-4.52-2.26-8.77-4.11-12.74-6.44-3-1.78-9.15-2.53-8.54-5.37.78-3.62,6.38-4.71,10.4-5.64a83.74,83.74,0,0,1,39.93.41A267.5,267.5,0,0,1,1149.93,403c1.07.5,2.52,1.91,3.35.05.61-1.34-1-1.82-2-2.36A171.15,171.15,0,0,0,1123.66,388C1121.9,387.43,1119.55,387.62,1118.79,385.21Z"/><path class="cls-3" d="M1233.73,463.74a139.54,139.54,0,0,0,26-38.59c1-2.27,2-4.55,3-6.82,5,11.38,7.57,23.51,11.22,35.3A309.34,309.34,0,0,1,1284.89,504c.23,1.66.53,3.23-.27,4.79-1.49.63-2.08,2.07-2.87,3.29-16.85,26-40.34,44.1-68.3,56.65-9,4.06-18.51,7.11-27.78,10.63-3.2.51-5.62-1.67-8.43-2.51-35.14-10.54-68.43-8-98.79,14.18-2.76,2-4.72,1.29-7.23.52-20.09-6.2-38.31-3.75-53.66,11.75-4,4-5.67,9.66-9.43,13.86-3.5-.89-6.9.42-10.37.46-28,.34-55.08-4.38-81.6-13-16.42-5.35-32.93-10.45-46.54-21.83-3-2.52-5.7-5.54-9.43-7.13-3.29-3.22-3.93-7.64-4.93-11.74a220.91,220.91,0,0,1-5.45-34.82c-.28-3.44.24-3.67,3.13-2.58,15.58,5.89,31.77,6.32,48.14,5.31,6-.37,11.77-3.22,18-2,.74,1.4,2.26,1.21,3.46,1.6,23.36,7.51,47.49,10.84,71.86,12.13,32.82,1.74,65.25-1.24,97-10.1,11.1-3.1,22.39-5.7,32.51-11.6a10.47,10.47,0,0,1,6.26-.33c11.23,2.71,22.66,3.72,34.06,1.5,32.37-6.28,56.59-22.73,67.68-55.2C1232.37,466.39,1233.11,465.09,1233.73,463.74Z"/><path class="cls-5" d="M141.24,66.81c.93,2.07-.71,3.06-1.84,4.18-26.5,26.24-41.46,58.8-51.9,94-5.85,19.72-10.71,39.66-15.06,59.73C68.61,242.3,66,260.13,63.75,278c-2.54,20-3.87,40.16-5.14,60.31a815.34,815.34,0,0,0-.5,83.75C59.5,456.5,70.53,488.46,90,517c7,10.27,16.56,18.55,25.78,27,3.08,2.8,7.57,4.32,8.83,8.94a42.16,42.16,0,0,1-28.16-9.62c-16.8-13.59-29.59-30.52-39.18-49.75-14.4-28.88-20.23-59.86-21.47-91.88-.09-2.26.42-4.79-1.87-6.69a220.4,220.4,0,0,0,10.57,79.91c-4.16,7.2-5,15.44-6.44,23.31-1.62,8.57-2,17.43-2.25,26.18-.61,22.73,3.28,44.84,10,66.49,6.21,19.87,13.33,39.36,26.83,55.67,7.79,9.42,14.5,19.84,24.55,27.25a82.37,82.37,0,0,0,33.43,14.75c6.8,1.33,8.61-1,8.08-7.76-.81-10.63.88-21.2,1.14-31.82a87.06,87.06,0,0,1,6.16-30c7.06-17.81,20.3-29.12,37.69-36.08a92.41,92.41,0,0,1,27.51-6.07c1.31-.1,2.72.12,3.51-1.33,5.51,1.25,10,4.29,14.23,7.88l-.91,1c-23.38-8-47.63-.81-62,19.78-1.1,1.57-2.77,3-2.27,5.28-15.81,21.5-16.34,45-9.31,69.6,2,6.93,5.9,13,8.16,19.73,1.66,7.82,6.62,13.53,12.2,18.75a93.8,93.8,0,0,0,7.75,5.89c-2.88,1.5-5.66.41-8.23.16a306,306,0,0,1-87.51-22.15C61,690.7,42.47,672,30.21,646.63,15.7,616.62,8,585,5.54,551.91c-3-40.93.93-81.29,9.79-121.14C28.56,371.28,37.74,311.19,44,250.61c3.52-34,9.35-67.46,23.72-98.76C84,116.48,107.71,87.35,141.24,66.81Z"/><path class="cls-4" d="M853.3,335.72c22.37,25.36,51.51,38.22,83.74,45.43,1.67.37,3.66.18,5,1.67-.31,2-2.06,1.89-3.38,2.43-23.37,9.57-41,26.18-55.95,45.94-.52.67-.83,1.45.32,2.88,22.71-26.22,47.14-49.57,85-48.34l1,1.26q-6.09,7.35-12.16,14.72a34.92,34.92,0,0,0-2.52,3.08c-.5.76-1.6,1.69-.75,2.61,1.17,1.27,2.15,0,2.89-.77,4.94-5.16,10-10.25,14.67-15.63,2.44-2.81,4.46-2.95,7.64-1.2a41.73,41.73,0,0,1,16.64,16.73c1.55,2.8,1.59,5-.12,7.78a162.57,162.57,0,0,1-14,19.38c-.8,1-3.39,2.31-1.32,4,1.41,1.13,2.61-.82,3.64-1.81A125,125,0,0,0,999.05,418c1.08,4.88,2.06,9.6,1.82,14.52-.82,16.56-7.61,30.79-17.19,43.89-19.21,26.27-45.5,42.48-76.59,49.55-24.69,5.61-49.2,1.94-70.56-13-14.84-10.36-23.38-25-25.55-43.3-2.78-23.38,4.21-44.15,15.75-64,8-13.78,16-27.6,21.75-42.57C851.85,354.29,852.06,344.91,853.3,335.72Z"/><path class="cls-4" d="M1185.67,579.37c9.27-3.52,18.75-6.57,27.78-10.63,28-12.55,51.45-30.63,68.3-56.65.79-1.22,1.38-2.66,2.87-3.29,2.77,5.82,2.42,12.22,2.9,18.33,2.66,33.61-4.89,65.39-18.76,95.78-8.87,19.42-23.83,33.67-40.4,46.64-24.5,19.18-52.45,31.87-80.68,44.12-14.33,6.22-28.71,12.32-43.59,17.16-1.53.5-3.47,1.86-4.62.41s.93-2.92,1.71-4.22a62.07,62.07,0,0,0,6-14.16c.35-1.19.71-2.22-.32-3.2,1.79-4.73,1.64-9.73,2.24-14.65a84.73,84.73,0,0,0-5-41c-3.74-9.87-9.64-18.51-14.74-27.61.28-5-3.72-7.57-6.3-10.78a71.56,71.56,0,0,0-25.2-19.89c-.83-.39-2-.49-2.34-2.14,8.78-.65,16.58,2.46,24.36,5.44,4.8,1.85,9.45,4.06,14.16,6.13,1.1.47,2.45,1.15,3.13-.06s-.77-1.9-1.7-2.54c-4.37-3-9.23-5.14-14.5-7.44a47.92,47.92,0,0,1,13.69-9.35c21.08-9.93,43.08-12.22,66-8.57,10.45,1.66,20.28,4.89,30.12,8.43,1.14.41,2.68,1.87,3.53.28,1.09-2-1.32-2.18-2.38-3C1190,581.53,1187.22,581.54,1185.67,579.37Z"/><path class="cls-4" d="M860.19,575.64c3.73,1.59,6.41,4.61,9.43,7.13,13.61,11.38,30.12,16.48,46.54,21.83,26.52,8.65,53.64,13.37,81.6,13,3.47,0,6.87-1.35,10.37-.46-1.38,6.13-3.18,12.2-4,18.4-3.11,21.91.64,43,8.75,63.36,1.07,2.68,1.18,3.87-2.27,3.78-26.34-.7-51.74,5-77.06,11.3a475.74,475.74,0,0,1-66.09,11.47c-1.8.18-3.63,0-6,0,2.25-3.9,4.18-7.48,6.34-10.93,2-3.22,2.2-6.93,3.15-10.43.36-1.32-.4-2.22-1.72-2.58.62-6.74,1.71-13.48,1.79-20.23a99.5,99.5,0,0,0-8.87-42.46c-2.77-6.17-6-12.14-11.7-16.29-1.82-5.94-6.58-9.83-10.19-14.51a65.25,65.25,0,0,0-38.33-24c6.84-3.49,13.4-2.73,19.81-2,13.19,1.53,25.89,4.53,35.87,14.26.58.56,1.26,1.3,2.11.5s.4-1.6-.23-2.18c-1.33-1.23-2.76-2.36-4.24-3.6,4.19-3,4.29-3.1,6.26.4C868.44,603.88,877,615,888,624.1c1.58,1.29,3.27,5,5.32,2.71,1.87-2.08-1.79-3.81-3.32-5.14-12-10.47-20.27-23.61-27.31-37.62C861.39,581.45,859.62,578.85,860.19,575.64Z"/><path class="cls-4" d="M1123.89,521.82c-10.12,5.9-21.41,8.5-32.51,11.6-31.76,8.86-64.19,11.84-97,10.1-24.37-1.29-48.5-4.62-71.86-12.13-1.2-.39-2.72-.2-3.46-1.6-.15-2.82,2.47-2.31,3.87-3,13.87-6.41,27.87-12.77,39.93-22.2,17.94-14,32.34-31.3,39.18-53.33,6.15-19.86,5.17-39.37-8.91-56.41-.62-.75-1.48-1.38-1.28-2.55,16.37,1.41,32.74,2.76,49.19,2.76-5,7.77-8.58,16.06-9,25.45-1.09,23.4,7.13,43.66,22.83,60.32,17.79,18.9,40.33,30.64,65,38.38C1121.25,519.69,1124,518.82,1123.89,521.82Z"/><path class="cls-6" d="M162.7,698.74c-2.26-6.76-6.17-12.8-8.16-19.73-7-24.61-6.5-48.1,9.31-69.6,2.13.93,2.9-.67,3.9-2,12.07-16.48,28.56-23.17,48.61-21.58,12.37,1,28.74,11.7,32.67,27.67,5.47,22.21,7.45,44.54.47,66.82-7.41,23.65-23.22,38.67-47.71,42.77-10.16,1.71-19.31-3.6-27-10.52-3.37-3-5.81-6.8-8.3-10.54C165.58,700.64,165.28,698.27,162.7,698.74Zm62.86-39.38c1.31-9.73-6.71-18.54-18.67-18.62-12.12-.08-21.25,9.73-21.24,22.8,0,12.06,6.42,19.17,17.33,19.19C218.07,682.76,225.56,675,225.56,659.36Zm-12.1-46.66c0-6.84-4.85-12.54-10.76-12.64C197,600,192.59,605.17,192.54,612s3.92,10.93,10.23,10.87C208.69,622.76,213.45,618.25,213.46,612.7ZM222.52,633c0,7,2.78,10.55,8.34,10.71a11.2,11.2,0,0,0,11.82-11.33c.07-6.36-4.17-11.23-10-11.46C227.91,620.78,222.54,627.14,222.52,633Zm-48.41-13.28a11,11,0,0,0-11.1,11c.05,5.8,4.1,10.69,9,10.79a11.65,11.65,0,0,0,11.75-11.69C183.85,623.32,180.52,619.83,174.11,619.76Z"/><path class="cls-6" d="M337.37,602.38c2.93.47,4,3.08,5,5.14,5.8,11.74,10.67,23.63,11.5,37.13a138.89,138.89,0,0,1-1.52,33.49c-.36,2-.47,4.38-2.76,5.53-2.46,0-2.65,2.13-3.37,3.74a67.16,67.16,0,0,1-20.52,25.9c-15.3,11.9-42.4,6.21-54.79-5.73a52,52,0,0,1-14.79-26c-1-4.07-.07-7.86.63-11.79,3-16.89,1.18-33.63-1.52-50.38-1.47-9.09.42-17.47,7.82-23.7,17.28-14.56,37.09-17.38,55-8,5.65,3,10.4,7.12,15.06,11.39C334.42,600.37,335.52,601.87,337.37,602.38Zm-54,56.38c0,11.49,3.8,18.11,11.93,20.7,15.66,5,29.67-3.45,31.81-19.77,1.11-8.41.52-17.17-7.66-22.26-12.19-7.58-29.95-5.64-35.33,12.93C283.31,653.13,283.42,655.94,283.36,658.76Zm27.25-55c-.22-7.92-3.8-12.09-10.19-11.86s-11.86,6.36-11.81,13.06c0,5.48,5.25,9.91,11.46,9.75C307.09,614.55,310.8,610.7,310.61,603.78Zm-34.34,9.79c-5.61-.74-10.1,4.67-10.36,12.7a8.65,8.65,0,0,0,8.62,9.11c6.29,0,12.1-6,11.91-12.38C286.27,617.53,282,613.53,276.27,613.57Zm64.38,10.86c0-6.29-4.31-10-11.56-9.89-4.62,0-9.54,5.9-9.59,11.41-.06,6.9,3.08,10.78,8.79,10.86C335.83,636.91,340.67,632.07,340.65,624.43Z"/><path class="cls-7" d="M1089.36,626.45c5.1,9.1,11,17.74,14.74,27.61a84.73,84.73,0,0,1,5,41c-.6,4.92-.45,9.92-2.24,14.65-2.38,0-2.91,1.86-3.65,3.51-1,2.27-2,4.57-3,6.83-5.18,11.14-13.29,17.12-26.22,15.81-7.21-.73-14.58.38-21.7-1.87-16.08-5.08-26.06-16.74-32.72-31.36-4.65-10.23-8.63-20.94-10.11-32.17-2.56-19.4-2.92-38.73,6.53-56.78,4.6-8.79,11.16-15.37,21.66-16.28,10.32-.9,19.49,2.28,27.79,8.4,7.74,5.7,15.59,11.27,20.85,19.6A2.53,2.53,0,0,0,1089.36,626.45Zm-11.47,48c0-1,0-2,0-3-.22-8.25-4.54-15.46-11.54-17.62-7.81-2.41-15.32-2.07-21.59,4.49-7.17,7.51-7.46,16.15-4.87,25.37,1.56,5.55,4.82,9.87,10.42,11.89C1063.34,700.29,1077.88,689.1,1077.89,674.45Zm4-36c0-8.08-4.51-12.51-12.47-12.71-5.89-.15-9.9,5.18-10.36,12.26a11.6,11.6,0,0,0,11.63,12.67C1077.41,650.8,1081.89,645.92,1081.9,638.42Zm-48.67-1.71c8.17,1,12-4.62,12.25-12.13s-3.3-10.79-10.42-10.8c-7.81,0-13.13,6.11-13,15C1022.15,633.25,1027,636.71,1033.23,636.71ZM1013,660.92c0,6.69,3.23,10.67,8.77,10.75,7,.12,13.15-5.45,13.16-12,0-6.75-4.89-11.52-12.11-11.76C1018.34,647.79,1013,654.85,1013,660.92Z"/><path class="cls-7" d="M850.39,622.58c5.68,4.15,8.93,10.12,11.7,16.29A99.5,99.5,0,0,1,871,681.33c-.08,6.75-1.17,13.49-1.79,20.23-1.53.74-1.89,2.08-2.19,3.64-1,5.38-3.94,9.92-7.34,14-3.26,3.87-7.14,6-13,4.38-16.86-4.6-32.87-10.64-45.4-23.4-8.28-8.44-13.42-18.89-17.67-29.76-5-12.77-8.3-25.89-7.38-39.76.76-11.5,2.84-22.67,8.49-32.92,4.27-7.74,10-10.32,18.52-8.45,15.5,3.41,27.27,12.39,37,24.52,2.07,2.59,4.09,5.22,6.3,7.68C847.4,622.52,848.4,624.63,850.39,622.58Zm-13.3,41.21c.48-3.9-.73-8.08-2.2-12.11-3.25-9-14.17-14.6-22.57-11.34-8.17,3.17-15.11,11.28-11.18,22.81.75,2.19,1.14,4.57,2.23,6.58,4.39,8.11,10.86,13.6,20.8,11.73C833,679.81,837.09,674.26,837.09,663.79Zm-48.87-48.62c0,7.14,5.11,13.31,11.23,13.48s12.39-6.77,12.6-14.17c.18-6.38-5.5-12.7-11.43-12.71C793.82,601.75,788.25,607.77,788.22,615.17Zm40.21.76c-5.69.19-10.48,6-10.27,12.49s5.25,11.94,11,11.93A12.17,12.17,0,0,0,841,628.2C841,621.74,834.83,615.73,828.43,615.93Zm-30.31,31c.06-6.48-4.79-12.26-10.14-12.07-4,.15-7.65,4.86-7.76,10.1-.14,6.2,4.44,11.65,9.81,11.68C794.18,656.63,798.07,652,798.12,646.9Z"/><path class="cls-8" d="M510.37,721.8c-.87-10.82,4.63-18.69,12-25.62,7.8-7.33,16.32-13.53,26.78-16.55,1.39,1.41,2.75.61,4.09-.08,22.91-11.68,47.47-14,72.68-13.13a80.74,80.74,0,0,1,29,6.28,27.79,27.79,0,0,1,2.72,1.22c7,3.92,7.58,5.55,4.75,13.06-4,10.62-12.63,16.83-21.58,22.7a138.57,138.57,0,0,1-30.56,15.56,19.08,19.08,0,0,1-3.89.5c2.6-2.28,5.59-4.25,7.69-6.92a10.67,10.67,0,0,0,1.35-11.76c-2.45-4.89-6.89-6.94-12.2-7.39-10.61-.9-20.42,1.9-29.73,6.61-6.6,3.34-12.77,7.2-14.32,15.4-.91,4.85.64,8.46,5.24,10.38,2.54,1.06,5.26,1.7,7.9,2.53-13,1.64-26.08,2.17-38.92-1C524.88,731.46,516.49,728.71,510.37,721.8Zm90.56-25.07a20.43,20.43,0,0,0,8.26-1.62c3.3-1.19,5.74-3.66,5.93-7.29a7,7,0,0,0-4.81-7c-8-2.63-16.18-3.37-23.8,1.38-3.82,2.39-4.06,5.17-1.31,8.77C589.25,696.3,595.36,695.76,600.93,696.73Zm-53.16,16.89a17,17,0,0,0,13-5.21c2.92-3,4.59-6.88,2.72-11.31-1.95-4.6-5.87-5-10-4.34a15.93,15.93,0,0,0-12.77,10.47C538.33,709.53,541.52,713.62,547.77,713.62Zm84-6.94c7.77,0,12.54-3.41,12.53-9s-5.42-9.77-12.77-9.64c-4.65.09-9.23,5.37-9.23,10.63C622.27,704.14,625.26,706.67,631.74,706.68Z"/><path class="cls-8" d="M763,669.76c5.61.51,10.49,4.1,16.28,3.87h-.13l.91,1c3.87,9.23,8.49,18,15.07,25.65,2.48,2.87,1.65,4.54-.84,6.83-7.2,6.6-16.1,8.89-25.26,10.85-30.28,6.47-60.27,5.17-90-3.13-6.3-1.76-11.81-5.16-17.54-8.16-4.43-2.32-4.26-4.56-1-7.62a22.31,22.31,0,0,0,1.87-2.32c1.27,3.44,2.73,6.48,6.93,7.47,6.16,1.44,17.49-2.73,20.69-8.16a10.39,10.39,0,0,0,.38-10c-1.5-3.26-4.58-3.22-7.64-3.44-5.37-.37-9.85,2.16-14.57,4,.84-5.9,2.13-11.77.38-17.76-.58-2,1.26-1.9,2.52-2.13,13.17-2.4,26.49-2.39,39.77-1.81,11.1.48,22.18,1.57,33.22,2.82,4.92.56,9.74,2.08,14.56,3.32C760.43,671.52,762.15,672.3,763,669.76Zm-45.69,49.18c6.95-1.38,13.74-1.31,20.53-1.37a13.59,13.59,0,0,0,4.33-1.05c3.7-1.38,7.14-3.06,7-7.9-.16-4.63-2.91-7.37-6.93-8.77-13.77-4.78-27.9-4.68-42.1-2.59a26.93,26.93,0,0,0-9.38,3.17c-5.47,3.11-5.89,8.48-1,12.51a19.8,19.8,0,0,0,5.7,2.95C702.63,718.67,710.3,716.91,717.35,718.94Zm-.21-48.2a29,29,0,0,0-8.21.77c-3.56.92-6.1,2.76-6.61,6.39-.54,3.87,1.38,6.66,4.94,8.3,6.89,3.18,13.57,3.21,20.35-.61,3.11-1.76,4.79-3.9,4.58-7.45s-2.83-5.17-5.68-6.11C723.4,671,720.13,670.25,717.14,670.74Zm49.05,21c0-5.14-3.26-9.2-8.69-10.73s-13.13.88-15.29,4.72a7.39,7.39,0,0,0,2.21,10.1,28.24,28.24,0,0,0,11.94,4.65C761.35,701.31,766.17,696.79,766.19,691.69Z"/><path class="cls-2" d="M559.18,39.33c.13-12.46,5-22.81,14.24-31.09a15.12,15.12,0,0,1,18.91-1.15C600,12.38,603,20.24,603.12,29.4c0,2.16-1.34,2.81-3,3.38a157.55,157.55,0,0,0-36,17.91c-1.86,1.25-2.68,1.14-3.47-1.08A25,25,0,0,1,559.18,39.33Z"/><path class="cls-2" d="M834,81.33c-.53,9.11-4.3,16.46-9.79,23.23-4.92,6-4.66,6.17-8.64-.36a164.4,164.4,0,0,0-18.86-25c-1.73-1.91-2-3.44-1-5.75C800.1,63.69,808,59.12,817.57,61,826.75,62.88,834,71.92,834,81.33Z"/><path class="cls-9" d="M898.93,101c6.89-.11,11.35,2.32,15.62,5.34,1.91,1.35,1.73,2.46.12,3.9a176.7,176.7,0,0,0-26.57,30.19c-1.47,2.1-2.52,1.89-4.22.12a24.4,24.4,0,0,1-4.26-27.27C883.69,104.76,891.53,101.81,898.93,101Z"/><path class="cls-10" d="M344.58,36.92c7.22,1.84,10.42,7.24,11.74,13.9,1.68,8.55-.94,18-6.61,25.34-8.44-7.22-17.7-13.29-27.16-19.07,1.11-5.36,5.27-8.37,8.86-11.94C335.22,41.36,341,41,344.58,36.92Z"/><path class="cls-9" d="M1156.14,96.28c0,1.49,0,3,0,4.47-.12,2.59-.81,5.36-2.94,6.6s-3.68-1.48-5.29-2.65a143.31,143.31,0,0,0-32.82-17.64c-4.08-1.59-3.38-2.76-.68-5.11,8.8-7.7,18.87-8.64,29.41-5.2C1152.15,79.47,1156.2,86.47,1156.14,96.28Z"/><path class="cls-11" d="M572.27,734.59c-2.64-.83-5.36-1.47-7.9-2.53-4.6-1.92-6.15-5.53-5.24-10.38,1.55-8.2,7.72-12.06,14.32-15.4,9.31-4.71,19.12-7.51,29.73-6.61,5.31.45,9.75,2.5,12.2,7.39A10.67,10.67,0,0,1,614,718.82c-2.1,2.67-5.09,4.64-7.69,6.92v0c-.5.19-2-.53-1,1.08A150.13,150.13,0,0,1,572.27,734.59Zm4.3-5c12.44-.11,23.48-4.12,32.71-12.52,4.93-4.49,3.09-10.82-3.36-12.45A24,24,0,0,0,601,704c-11.8-.45-22.06,4-31.82,10.07-2.51,1.55-4,4-5.19,6.57-1.88,3.86-.78,6.44,3.22,7.82A22.45,22.45,0,0,0,576.57,729.6Z"/><path class="cls-10" d="M93.66,67.07c7.12-3.51,14.21-4.1,21,.61,5.39,3.72,5.44,8.2.67,12.45-5.29,4.71-10.33,9.68-15.48,14.53C94.29,86.26,93.28,76.82,93.66,67.07Z"/><path class="cls-5" d="M93.66,67.07c-.38,9.75.63,19.19,6.23,27.59L89.1,108.19c-.75,1-1.31,2-2.54.31C79.37,98.63,77,75.17,92.69,67.2A3,3,0,0,1,93.66,67.07Z"/><path class="cls-4" d="M1278.55,612.55c4.41-15.27,10.47-30.08,12.41-47.13,6.14,7.26,8.69,14.7,7.77,23.07-1.37,12.33-7,23.43-19.68,24.56C1278.89,612.88,1278.72,612.71,1278.55,612.55Z"/><path class="cls-5" d="M349.7,687.64c3.24,4.18,5.9,8.92,11.36,10.8,1.94.66,4.31.57,5.55,2.71a147.65,147.65,0,0,1-35.93,14.56A71,71,0,0,0,349.7,687.64Z"/><path class="cls-11" d="M668.12,686.59c4.72-1.82,9.2-4.35,14.57-4,3.06.22,6.14.18,7.64,3.44a10.39,10.39,0,0,1-.38,10c-3.2,5.43-14.53,9.6-20.69,8.16-4.2-1-5.66-4-6.93-7.47l4.73-8.07a1.82,1.82,0,0,0,1.15-2Zm4.32,13.33c5-1.08,11.06-1.09,13.88-7.22,1.27-2.78,1.14-5.28-2.64-5.89-4.69-.75-12.66,3-14.9,7.13-.73,1.34-1.91,2.88-.76,4.58C669,700,670.58,699.78,672.44,699.92Z"/><path class="cls-5" d="M344.58,36.92c-3.55,4-9.36,4.44-13.17,8.23-3.59,3.57-7.75,6.58-8.86,11.94-1.58-.86-3.17-1.71-4.74-2.59-5.06-2.82-5.58-4.46-1.58-8.68C324,37.7,333.5,34.69,344.58,36.92Z"/><path class="cls-5" d="M278.54,573.73c3.5,1.88,7.5,1,11.18,2,1.28.34,2.62.21,2.85,1.94-9.49,1.78-18.72,4.21-26.72,10.69C267,583.71,271.75,578.34,278.54,573.73Z"/><path class="cls-5" d="M144.55,64.94c-.07,2.4-1.44,2.44-3.2,1.76A5.55,5.55,0,0,1,144.55,64.94Z"/><path class="cls-4" d="M1052.5,592.72l.93.46a3.5,3.5,0,0,1-1,.52c-.25,0-.55-.22-.82-.34Z"/><path class="cls-8" d="M668.21,686.64a1.82,1.82,0,0,1-1.15,2C667.24,687.89,667.14,686.93,668.21,686.64Z"/><path class="cls-8" d="M605.4,726.78c-1.09-1.61.45-.89,1-1.08Z"/><path class="cls-2" d="M780.1,674.65l-.91-1C779.87,673.63,780.05,674.08,780.1,674.65Z"/><path class="cls-5" d="M231.41,585.16l-.34.6c-.1-.11-.31-.24-.29-.31a2.47,2.47,0,0,1,.3-.61Z"/><path class="cls-5" d="M229,583.35c.43.33,1.24.57.63,1.29s-1,0-1.54-.29Z"/><path class="cls-4" d="M1279.05,613.05l-.78.24c.09-.25.19-.49.28-.74C1278.72,612.71,1278.89,612.88,1279.05,613.05Z"/><path class="cls-1" d="M653.55,295.93C630.9,293.88,610,282,597,257.46c-5.19-9.77-9.15-19.91-10.26-31a30.31,30.31,0,0,1,2.59-16c3.37-7.25,9.91-10.2,18-9.58,9.71.75,18.19,5.08,27,8.33q33.23,12.21,66.35,24.7c8.29,3.13,11.13,8.43,9.77,17.22C706.36,277.15,684.43,295.94,653.55,295.93Zm2.7-4.8a2.88,2.88,0,0,0,4-.08c7.59.56,14.48-1.73,20.9-5.46,13.86-8.06,22.58-19.77,25-35.84.57-3.85-.22-7.28-3.47-9.83-2-1.58-3.73-1.92-5.38.52-7.36,10.95-26.29,6.87-31.34-2.07-1.58-2.8-2.95-3.15-6.15-1.91-11.45,4.43-25,.82-29.38-12.26-1-2.88-2.24-1-3.3-.59-4.38,1.79-8.7,2.89-13.54,1.7-8.26-2-15.26-5.56-18.73-14-1.92,1.3-2.26,3.08-2.65,4.88-2.45,11.3.81,21.65,5.24,31.82q1.33,3,2.65,6c4.54,8.12,9.4,16,16.85,21.88C628.46,285,641.22,291,656.25,291.13ZM649.88,234c5.7-.47,10.39-1.53,13.35-6.42,1.31-2.17,1.15-2.94-1.34-3.79-7.35-2.5-14.59-5.31-21.89-8-4.62-1.67-5.71-.81-5.65,4.32C634.42,227.26,642.37,234.09,649.88,234Zm-32.37-12.8a17.77,17.77,0,0,0,11.87-4.46c1.8-1.6,3.66-3.86-.8-5.15-3.81-1.1-7.37-3-11.14-4.23a39.06,39.06,0,0,0-14.66-2.27c-3.27.21-4.62,1.51-3.34,5C601.45,215.64,610.42,221.33,617.51,221.24Zm77.08,14.9c-6.89-2.61-13.62-5.31-20.47-7.67-1.64-.57-3.8-2.71-5.31-.67a6.47,6.47,0,0,0-.15,6.7c2.68,4.84,7.15,7.28,12.57,7.7S691.58,242.08,694.59,236.14Z"/><path class="cls-12" d="M670.39,189.16c-13.94,0-26.09-2.89-36.49-11.52-7.73-6.4-7.2-16.29,1.34-21.55,6.61-4.07,13.72-4,21.16-3.16,12.34,1.4,23.59,5.11,33.29,13.15,4.42,3.66,6.54,8,5.07,13.55-1.42,5.36-5.92,7.35-10.81,8.31C679.23,188.86,674.44,189.54,670.39,189.16Z"/><path class="cls-12" d="M733.08,160.62a10.22,10.22,0,1,1,.7-20.42c5.36.24,10.15,5.34,9.89,10.54A10.77,10.77,0,0,1,733.08,160.62Z"/><path class="cls-12" d="M616.22,127.15a10.24,10.24,0,0,1-20.48.07,10.24,10.24,0,1,1,20.48-.07Z"/><path class="cls-1" d="M751.08,219.85a73.52,73.52,0,0,1-7.79,33.53c-.72,1.4-1.62,3.88-3.26,3.1-2.16-1,0-2.82.61-4.13,4.1-9.25,5.39-19,6-29,.84-13,.14-25.53-7.6-36.69-.52-.75-1.37-1.84,0-2.45,1.15-.5,1.7.72,2.27,1.48a47.11,47.11,0,0,1,9.72,28.2C751.12,215.86,751.08,217.86,751.08,219.85Z"/><path class="cls-1" d="M699.06,151.71c-2.14,1.13-3.4-.29-4.75-1.1-15.46-9.26-31.94-12.62-49.72-8.8-1.33.29-3.4,1.3-4-.39-.68-2,1.64-2.12,2.91-2.48,20.38-5.73,38.72-1.57,55.18,11.53C698.89,150.63,698.88,151.06,699.06,151.71Z"/><path class="cls-12" d="M224.7,228.15a62.12,62.12,0,0,1-27.85-5.74c-10.29-4.76-11.12-14.93-1.89-21.43,8.61-6.06,18.6-7.56,28.69-8.8A104.74,104.74,0,0,1,260.2,194a28.23,28.23,0,0,1,10,4.22c7.25,5.09,7.19,14.19-.31,18.81-10.45,6.42-22.37,8-34.17,9.86C231.49,227.56,227.19,227.88,224.7,228.15Z"/><path class="cls-1" d="M44.54,474.89A220.4,220.4,0,0,1,34,395c2.29,1.9,1.78,4.43,1.87,6.69,1.24,32,7.07,63,21.47,91.88,9.59,19.23,22.38,36.16,39.18,49.75a42.16,42.16,0,0,0,28.16,9.62,15.57,15.57,0,0,0,10.53-.39c-7.16-6.42-12.62-13.48-11.32-23.79,1.82.22,1.66,1.33,1.9,2.27a44.86,44.86,0,0,0,1.68,5.73,23.8,23.8,0,0,0,13.89,13.55c4.24,1.59,8.28-2.27,12.17-4.3,4.65-2.44,8.11-6.26,11.76-10.2-7.65-7.16-14.59-14.65-14.3-26.08,2.35-.36,2,1.36,2.12,2.24.93,7.56,5.91,12.45,11.18,17.1,4.05,3.56,4.38,3.43,6.73-1.77,6.51-14.41,6.08-29,.69-43.55-12.37-33.26-25-66.42-37.46-99.63-.45-1.19-1.45-2.3-.6-3.79,1.91-.31,1.94,1.37,2.38,2.42,14,33.66,28.7,67.09,40.43,101.61,6.72,19.75,5.79,39.52-9.3,56.1-20.75,22.79-57.54,23-79.87.92A177.16,177.16,0,0,1,44.54,474.89Z"/><path class="cls-1" d="M301.5,509.81c.38-1.24.74-2.49,1.14-3.72.55-1.66.77-4,3.31-3.27,2.21.63,1.43,2.55,1,4.12q-1.32,4.72-2.68,9.44c-2.09,3.54-4.18,7.09-6.28,10.62-.54.9-1.55,1.36-.6,2.9,6.82,11.06,21.14,12.36,29.34,2.53,3.13-3.1,4.55-7.22,6.54-11,.8-1.52,1.33-3.94,3.75-2.77s.83,3.28.22,4.77c-1.12,2.74-2.62,5.33-4,8a38,38,0,0,1-10.35,10.67c19.9,2.52,36-2.53,48.59-17.27,14.21-14.25,23.31-31.65,31.09-49.93,9.78-23,16.74-46.85,22.63-71.07.25-1-.19-2.44,1.32-2.93,1.77.51,1,1.84.84,2.85-6.38,32-15.05,63.29-30.08,92.41-9.06,17.54-20.3,33.67-37.69,44.14-18,10.84-46.25,9.79-61.5-4.07-19.53-17.74-27.48-39-17.7-64.59,13.55-35.5,29.7-69.91,44.22-105a6.49,6.49,0,0,1,1.26-1.5c2.43,1.38.69,3.11.26,4.35-7.27,21-15.72,41.53-24.57,61.9a4.85,4.85,0,0,0-.13,1.49c-7.49,15.52-14.31,31.31-19.18,47.88-5,17,1.19,31.05,11.49,44.47C297.28,520.15,300.37,515.48,301.5,509.81Z"/><path class="cls-5" d="M301.5,509.81c-1.13,5.67-4.22,10.34-7.73,15.41-10.3-13.42-16.47-27.5-11.49-44.47,4.87-16.57,11.69-32.36,19.18-47.88,1.13,3.82-.75,7.29-1.47,10.83-4.09,20.27-5.2,40.57-1.44,61C298.91,506.62,298.68,509.18,301.5,509.81Z"/><path class="cls-1" d="M162.74,217.74c.61.32,1.38.49,1.42.77a3.48,3.48,0,0,1-1.13,2.63,75.47,75.47,0,0,0-13.77,24.59c-5.17,16.2-4.73,32,4.47,46.86a35.8,35.8,0,0,0,7.69,8.41c.82.69,2.37,1.38,1.43,2.66s-2,0-3-.55c-9.33-5.84-14.16-14.87-16.59-25.06-5.53-23.11,3-42.2,18-59.21A8.51,8.51,0,0,1,162.74,217.74Z"/><path class="cls-12" d="M166.23,171.05a10.43,10.43,0,0,1,10.34,10.46,10.6,10.6,0,0,1-10,9.82A10.22,10.22,0,0,1,156.1,181,10,10,0,0,1,166.23,171.05Z"/><path class="cls-12" d="M279.11,176.84A9.92,9.92,0,0,1,289.29,167a10.39,10.39,0,0,1,10.22,10.06,10.54,10.54,0,0,1-10.13,10.21A10.18,10.18,0,0,1,279.11,176.84Z"/><path class="cls-5" d="M326.72,532.43c-8.2,9.83-22.52,8.53-29.34-2.53-.95-1.54.06-2,.6-2.9,2.1-3.53,4.19-7.08,6.28-10.62,4.14,7.23,10.77,11.16,18.29,14C324,530.9,326,530.43,326.72,532.43Z"/><path class="cls-5" d="M371.51,524.82c-12.61,14.74-28.69,19.79-48.59,17.27a38,38,0,0,0,10.35-10.67c1.09,1.76,2.87,1.38,4.46,1.35a62.34,62.34,0,0,0,25.84-5.45C366.11,526.13,368.6,524.82,371.51,524.82Z"/><path class="cls-1" d="M235.3,293.28c7.23-1.42,13.93-2.87,19.7-6.95a45,45,0,0,0,8.79-8c.65-.79,1.31-2.39,2.61-1.53,1.69,1.11.13,2.33-.48,3.31-5.09,8.32-12.83,12.73-22.22,14.13C241.27,294.63,238.32,296.4,235.3,293.28Z"/><path class="cls-9" d="M1147,219.77c-.5,37.42-37.34,51.88-60,42.12a38,38,0,0,1-13.1-8.92c-13.18-14.27-25.63-28.69-24.47-50.35,1.57-29.47,30.4-51.41,59.46-38.92C1129.88,172.73,1147.15,198,1147,219.77Zm-63.33,1.39a10,10,0,0,0,10.45-10.22,10.16,10.16,0,1,0-20.31,0A9.85,9.85,0,0,0,1083.64,221.16Z"/><path class="cls-9" d="M962.13,279.82c-23.12,8.47-39.64.38-51.2-13.26-9.85-11.63-12.61-25.85-8.47-40.35,6.51-22.81,18.7-42.47,42.11-50.45,26.77-9.12,48.83.31,55.42,28.92,1.79,7.78.71,15.73,1.06,23.6C976.76,236.52,962.15,255.86,962.13,279.82Zm6.67-57.11c.14-5.49-4.86-10.5-10.51-10.53a10.63,10.63,0,0,0-10.15,9.73,10.76,10.76,0,0,0,10.15,10.88C963.34,233,968.67,227.86,968.8,222.71Z"/><path class="cls-1" d="M1123.89,521.82c.06-3-2.64-2.13-4-2.57-24.67-7.74-47.21-19.48-65-38.38-15.7-16.66-23.92-36.92-22.83-60.32.43-9.39,4-17.68,9-25.45,7.37-6.49,15-12.35,25.13-14.14a90.23,90.23,0,0,1,45.95,3.34c2.18.75,4.3,1.71,6.68.91.76,2.41,3.11,2.22,4.87,2.81a171.15,171.15,0,0,1,27.61,12.62c1,.54,2.62,1,2,2.36-.83,1.86-2.28.45-3.35-.05A267.5,267.5,0,0,0,1104,386.5a83.74,83.74,0,0,0-39.93-.41c-4,.93-9.62,2-10.4,5.64-.61,2.84,5.5,3.59,8.54,5.37,4,2.33,8.22,4.18,12.74,6.44-2,2.15-3.63,1.26-5.23.6-6-2.45-12.07-4.74-18-7.43-3-1.38-5-.7-6.89,1.73a41,41,0,0,0-8,19.61c-.37,2.62.93,3.89,2.87,5.18,6.91,4.6,13.77,9.29,20.61,14,1,.71,3,1.48,2.14,2.87-1.1,1.88-2.7.13-3.81-.51-6.06-3.46-12-7.07-18-10.64-1.11-.66-2.08-1.69-3.74-1.33-.63,10.11,3,19.1,6.87,28.18,6.94,16.44,19,28.25,33.47,37.93,18,12,37.39,20.78,58.94,24.4,29.23,4.9,54-3.86,75.11-24.05,13.56-12.95,19.65-29.18,21.61-47.45.59-5.46.37-11.14,3.07-16.34,1.59,11.3-1.73,22.3-2.28,33.45-.62,1.35-1.36,2.65-1.84,4.05-11.09,32.47-35.31,48.92-67.68,55.2-11.4,2.22-22.83,1.21-34.06-1.5A10.47,10.47,0,0,0,1123.89,521.82Z"/><path class="cls-12" d="M1018.39,266.86a60.46,60.46,0,0,1-14.8-.9c-5.07-.85-9.44-5-9.83-9.15-.49-5.23,1.57-8.57,7.51-10.84,10.1-3.87,20.48-5.05,31.07-2a30.92,30.92,0,0,1,5,2c4,2,6.59,5.2,6.24,9.84-.37,4.87-3.59,7.77-8,9.06A52.13,52.13,0,0,1,1018.39,266.86Z"/><path class="cls-1" d="M962.13,279.82c0-24,14.63-43.3,38.92-51.54a82.15,82.15,0,0,1,29.55-2.9c.66.05,1.49-.2,2,.11,1.12.74,3.68-.45,3.36,1.84-.22,1.66-2.27.85-3.43.79a78,78,0,0,0-29.44,3.73c-23,7.86-37.12,27.1-37.42,51.49-.08,6.15-.18,12.29,1.31,18.33.25,1,.93,2.24-.6,3.53C961.44,297.2,962.56,288.37,962.13,279.82Z"/><path class="cls-1" d="M1031.1,324.46c1.1-2.29,2.93-2.11,4.42-2.62,11.22-3.82,20.57-9.86,25.32-21.36.43-1,.73-2.54,2.2-2.12,1.22.35.64,1.57.41,2.53C1060.21,313.89,1044.73,325.34,1031.1,324.46Z"/><path class="cls-9" d="M225.56,659.36c0,15.65-7.49,23.4-22.58,23.37-10.91,0-17.33-7.13-17.33-19.19,0-13.07,9.12-22.88,21.24-22.8C218.85,640.82,226.87,649.63,225.56,659.36Zm-4-.54c0-8-5.56-12.85-14.18-13.35-7.91-.46-17.54,6.22-17.68,18.1-.1,8.59,5.81,15.06,13.77,15.13C214.45,678.8,221.49,671.05,221.57,658.82Z"/><path class="cls-9" d="M213.46,612.7c0,5.55-4.77,10.06-10.69,10.12-6.31.06-10.27-4.14-10.23-10.87s4.49-12,10.16-11.89C208.61,600.16,213.46,605.86,213.46,612.7Zm-4.74-.82c-.05-4.07-2.55-7.06-6-7.14s-6.2,3.1-6.1,7.12c.1,3.82,1.87,6.44,5.86,6.78C206.1,618.94,208.77,615.87,208.72,611.88Z"/><path class="cls-9" d="M222.52,633c0-5.9,5.39-12.26,10.2-12.08,5.79.23,10,5.1,10,11.46a11.2,11.2,0,0,1-11.82,11.33C225.3,643.59,222.5,640,222.52,633Zm8.84,5.82c4.89,0,7.21-2.5,7.18-7.2,0-4.08-2.63-5.59-6-5.85-2.87-.22-6,3.92-5.91,7.44C226.62,636.59,227.34,639.34,231.36,638.86Z"/><path class="cls-9" d="M174.11,619.76c6.41.07,9.74,3.56,9.61,10A11.65,11.65,0,0,1,172,641.5c-4.86-.1-8.91-5-9-10.79A11,11,0,0,1,174.11,619.76Zm5.46,9.8c0-3.71-2.32-5.38-5.58-5.71-3.5-.35-6.4,3.21-6.38,7.32,0,3.54,1.37,5.75,5.26,5.6A7.2,7.2,0,0,0,179.57,629.56Z"/><path class="cls-9" d="M283.36,658.76c.06-2.82-.05-5.63.75-8.4,5.38-18.57,23.14-20.51,35.33-12.93,8.18,5.09,8.77,13.85,7.66,22.26C325,676,311,684.46,295.29,679.46,287.16,676.87,283.35,670.25,283.36,658.76Zm39.28-3.38c0-.83,0-1.66,0-2.49.12-6.06-2.35-10.51-7.95-13.18-6.72-3.21-13.92-3-19.36,1.21-7.32,5.65-9.1,14.3-7.47,23.44,1.78,9.94,9.52,13,18.17,11.85C317.75,674.69,322.68,667.86,322.64,655.38Z"/><path class="cls-9" d="M310.61,603.78c.19,6.92-3.52,10.77-10.54,11-6.21.16-11.42-4.27-11.46-9.75-.05-6.7,5.49-12.83,11.81-13.06S310.39,595.86,310.61,603.78Zm-17.12-1.08c-.18,5.9,2.41,7.89,5.82,7.76s7-1.3,7.18-6-2.13-7.77-5.75-7.84C296.91,596.55,293.53,600.24,293.49,602.7Z"/><path class="cls-9" d="M276.27,613.57c5.69,0,10,4,10.17,9.43.19,6.36-5.62,12.4-11.91,12.38a8.65,8.65,0,0,1-8.62-9.11C266.17,618.24,270.66,612.83,276.27,613.57Zm5.32,8.95a5.14,5.14,0,0,0-5-4.73c-3.31-.22-6,3.5-6,7.71,0,3.07,1.05,5.23,4.49,5.26S281.74,627.05,281.59,622.52Z"/><path class="cls-9" d="M340.65,624.43c0,7.64-4.82,12.48-12.36,12.38-5.71-.08-8.85-4-8.79-10.86.05-5.51,5-11.37,9.59-11.41C336.34,614.46,340.64,618.14,340.65,624.43Zm-17.1,2.38c.62,2.51,1.23,5.59,5.1,5.79a7.74,7.74,0,0,0,7.92-7.8c0-3.56-3.07-6.19-7-6C326.75,619,323.5,623,323.55,626.81Z"/><path class="cls-1" d="M1077.89,674.45c0,14.65-14.55,25.84-27.58,21.14-5.6-2-8.86-6.34-10.42-11.89-2.59-9.22-2.3-17.86,4.87-25.37,6.27-6.56,13.78-6.9,21.59-4.49,7,2.16,11.32,9.37,11.54,17.62C1077.92,672.45,1077.89,673.45,1077.89,674.45Zm-35.15.11c0,10.53,5.5,18,13.25,18,10.26-.09,18-8.36,18-19.18,0-9.81-6.34-16.81-15.19-16.8S1042.77,664.53,1042.74,674.56Z"/><path class="cls-1" d="M1081.9,638.42c0,7.5-4.49,12.38-11.2,12.22A11.6,11.6,0,0,1,1059.07,638c.46-7.08,4.47-12.41,10.36-12.26C1077.39,625.91,1081.92,630.34,1081.9,638.42Zm-11.06,7.3c4.93,0,7.19-2.28,7.22-7.3,0-4.86-3.41-8.54-7.87-8.44-3.68.09-6.52,3.55-6.54,7.95C1063.62,643.43,1065.74,645.72,1070.84,645.72Z"/><path class="cls-1" d="M1033.23,636.71c-6.24,0-11.08-3.46-11.15-8-.15-8.84,5.17-15,13-15,7.12,0,10.72,3.37,10.42,10.8S1041.4,637.73,1033.23,636.71Zm7.73-12.5c-.07-3.18-1.26-6.14-5.5-6.33-4.73-.21-8.57,4.27-8.64,9.68-.06,4.32,2.79,5.24,6.24,5.29C1038,632.93,1040.93,629.83,1041,624.21Z"/><path class="cls-1" d="M1013,660.92c0-6.07,5.35-13.13,9.82-13,7.22.24,12.12,5,12.11,11.76,0,6.53-6.12,12.1-13.16,12C1016.22,671.59,1013,667.61,1013,660.92Zm17.34-1.47a6.51,6.51,0,0,0-7-6.65c-3.19.12-6.48,4.3-6.46,8.2s2.44,6.77,5.77,6.55A8.25,8.25,0,0,0,1030.33,659.45Z"/><path class="cls-1" d="M837.09,663.79c0,10.47-4.14,16-12.92,17.67-9.94,1.87-16.41-3.62-20.8-11.73-1.09-2-1.48-4.39-2.23-6.58-3.93-11.53,3-19.64,11.18-22.81,8.4-3.26,19.32,2.38,22.57,11.34C836.36,655.71,837.57,659.89,837.09,663.79ZM817.56,644.4a10.38,10.38,0,0,0-9.43,3.76c-7.62,8.52-1.61,26.23,9.86,28.84,6.56,1.5,12-.88,13.81-6.5,2.27-6.84,1.21-13.51-2.36-19.63C826.85,646.41,822.82,643.93,817.56,644.4Z"/><path class="cls-1" d="M788.22,615.17c0-7.4,5.6-13.42,12.4-13.4,5.93,0,11.61,6.33,11.43,12.71-.21,7.4-6.39,14.35-12.6,14.17S788.19,622.31,788.22,615.17Zm19-.6c0-5.16-2.57-8.55-6.74-8.74-3.67-.17-7.7,4.75-7.71,9.4,0,5.07,3.23,9.22,7.17,9.17C803.62,624.34,807.19,619.53,807.24,614.57Z"/><path class="cls-1" d="M828.43,615.93c6.4-.2,12.59,5.81,12.61,12.27a12.17,12.17,0,0,1-11.91,12.15c-5.72,0-10.75-5.47-11-11.93S822.74,616.12,828.43,615.93Zm7.82,12.52a7.46,7.46,0,0,0-7.28-7.82c-3.42-.14-6.47,3.26-6.58,7.31s2.8,7.6,6.23,7.77C833.13,635.94,836.19,633,836.25,628.45Z"/><path class="cls-1" d="M798.12,646.9c0,5.06-3.94,9.73-8.09,9.71-5.37,0-9.95-5.48-9.81-11.68.11-5.24,3.73-9.95,7.76-10.1C793.33,634.64,798.18,640.42,798.12,646.9Zm-13.77-1.55c0,3.53,2.46,6.58,5.13,6.54,3.48,0,4.4-2.57,4.62-5.36.27-3.46-2.89-7.18-5.74-6.87C784.76,640,785,643.13,784.35,645.35Z"/><path class="cls-11" d="M600.93,696.73c-5.57-1-11.68-.43-15.73-5.72-2.75-3.6-2.51-6.38,1.31-8.77,7.62-4.75,15.79-4,23.8-1.38a7,7,0,0,1,4.81,7c-.19,3.63-2.63,6.1-5.93,7.29A20.43,20.43,0,0,1,600.93,696.73Zm-.47-13c-3.72,0-6.9-.33-9.82,1.23-1,.54-2.46.91-2.5,2.17a3.36,3.36,0,0,0,2.34,3c5.65,2.16,11.43,3.09,17.33,1a3.49,3.49,0,0,0,2.54-3.33c0-1.81-1.28-2.59-2.64-3.24C605.21,683.34,602.51,683.8,600.46,683.72Z"/><path class="cls-11" d="M547.77,713.62c-6.25,0-9.44-4.09-7-10.39a15.93,15.93,0,0,1,12.77-10.47c4.1-.67,8-.26,10,4.34,1.87,4.43.2,8.34-2.72,11.31A17,17,0,0,1,547.77,713.62Zm.54-4.69c5.59.05,11.63-4,11.57-8.13,0-2.3-1.21-4.1-4-4-4.79.18-11.36,5.66-11.38,9.53C544.49,709.08,546.47,708.92,548.31,708.93Z"/><path class="cls-11" d="M631.74,706.68c-6.48,0-9.47-2.54-9.47-8,0-5.26,4.58-10.54,9.23-10.63,7.35-.13,12.76,4,12.77,9.64S639.51,706.7,631.74,706.68Zm3.42-13.81c-5.44-.1-9.12,2.45-8.79,5.7.35,3.42,2.93,4,5.83,3.92,3.49-.08,7.08-.56,7.56-4.71C640.16,694.32,637.27,693.17,635.16,692.87Z"/><path class="cls-11" d="M717.35,718.94c-7.05-2-14.72-.27-21.87-3.05a19.8,19.8,0,0,1-5.7-2.95c-4.91-4-4.49-9.4,1-12.51a26.93,26.93,0,0,1,9.38-3.17c14.2-2.09,28.33-2.19,42.1,2.59,4,1.4,6.77,4.14,6.93,8.77.18,4.84-3.26,6.52-7,7.9a13.59,13.59,0,0,1-4.33,1.05C731.09,717.63,724.3,717.56,717.35,718.94Zm2.79-5.55a105.84,105.84,0,0,0,17.89-.47c2.9-.4,6.1-.65,6.24-4.33.13-3.48-3-4.45-5.71-5.27-12.35-3.71-24.91-3.47-37.5-1.66a33.83,33.83,0,0,0-7.11,2.22c-1.38.51-2.93,1.2-2.88,3,0,1.68,1.37,2.61,2.69,3.33a24.22,24.22,0,0,0,10.93,3.11C709.83,713.48,715,713.39,720.14,713.39Z"/><path class="cls-11" d="M717.14,670.74c3-.49,6.26.27,9.37,1.29,2.85.94,5.47,2.52,5.68,6.11s-1.47,5.69-4.58,7.45c-6.78,3.82-13.46,3.79-20.35.61-3.56-1.64-5.48-4.43-4.94-8.3.51-3.63,3-5.47,6.61-6.39A29,29,0,0,1,717.14,670.74Zm-3.38,4.31a15.47,15.47,0,0,1-2.56.48c-2.1.2-4.26.63-4.48,3s1.83,3.44,3.69,4.17a16.17,16.17,0,0,0,13.9-.5c1.56-.82,3.91-1.47,3.43-3.66s-2.69-2.74-4.73-2.93C720.38,675.41,717.74,675.3,713.76,675.05Z"/><path class="cls-11" d="M766.19,691.69c0,5.1-4.84,9.62-9.83,8.74a28.24,28.24,0,0,1-11.94-4.65,7.39,7.39,0,0,1-2.21-10.1c2.16-3.84,9.91-6.23,15.29-4.72S766.22,686.55,766.19,691.69Zm-9.45,4.09c3,0,5.24-1.1,5.42-4.42S758,684.65,753.5,685c-3.12.27-7.06.1-8,4.3C745,692,751.88,695.79,756.74,695.78Z"/><path class="cls-13" d="M576.57,729.6a22.45,22.45,0,0,1-9.36-1.17c-4-1.38-5.1-4-3.22-7.82,1.23-2.54,2.68-5,5.19-6.57,9.76-6,20-10.52,31.82-10.07a24,24,0,0,1,4.92.66c6.45,1.63,8.29,8,3.36,12.45C600.05,725.48,589,729.49,576.57,729.6Z"/><path class="cls-13" d="M672.44,699.92c-1.86-.14-3.46,0-4.42-1.4-1.15-1.7,0-3.24.76-4.58,2.24-4.14,10.21-7.88,14.9-7.13,3.78.61,3.91,3.11,2.64,5.89C683.5,698.83,677.49,698.84,672.44,699.92Z"/><path class="cls-14" d="M597.43,248c-4.44-10.17-7.7-20.52-5.25-31.82.39-1.8.73-3.58,2.65-4.88,3.47,8.43,10.47,12,18.73,14,4.84,1.19,9.16.09,13.54-1.7,1.06-.43,2.34-2.29,3.3.59,4.34,13.08,17.93,16.69,29.38,12.26,3.2-1.24,4.57-.89,6.15,1.91,5.05,8.94,24,13,31.34,2.07,1.65-2.44,3.37-2.1,5.38-.52,3.25,2.55,4,6,3.47,9.83-2.38,16.07-11.1,27.78-25,35.84-6.42,3.73-13.31,6-20.9,5.46a44.21,44.21,0,0,0-1.06-12.35c-2.13-10.5-7.12-19.11-16.16-25.28-10-6.87-21.21-7.61-32.77-6.58C606,247.22,601.71,247.63,597.43,248Z"/><path class="cls-13" d="M656.25,291.13c-15-.13-27.79-6.17-39.33-15.24-7.45-5.85-12.31-13.76-16.85-21.88a2.63,2.63,0,0,1,2.2-1.74,63,63,0,0,1,24.19-.61c15.36,2.79,25,12.48,28.07,27.72C655.31,283.25,655.69,287.21,656.25,291.13Z"/><path class="cls-11" d="M656.25,291.13c-.56-3.92-.94-7.88-1.72-11.75-3.08-15.24-12.71-24.93-28.07-27.72a63,63,0,0,0-24.19.61,2.63,2.63,0,0,0-2.2,1.74l-2.64-6c4.28-.39,8.56-.8,12.84-1.18,11.56-1,22.72-.29,32.77,6.58,9,6.17,14,14.78,16.16,25.28a44.21,44.21,0,0,1,1.06,12.35A2.88,2.88,0,0,1,656.25,291.13Z"/><path class="cls-10" d="M649.88,234c-7.51.05-15.46-6.78-15.53-13.85-.06-5.13,1-6,5.65-4.32,7.3,2.65,14.54,5.46,21.89,8,2.49.85,2.65,1.62,1.34,3.79C660.27,232.51,655.58,233.57,649.88,234Z"/><path class="cls-10" d="M617.51,221.24c-7.09.09-16.06-5.6-18.07-11.09-1.28-3.51.07-4.81,3.34-5a39.06,39.06,0,0,1,14.66,2.27c3.77,1.22,7.33,3.13,11.14,4.23,4.46,1.29,2.6,3.55.8,5.15A17.77,17.77,0,0,1,617.51,221.24Z"/><path class="cls-10" d="M694.59,236.14c-3,5.94-8.06,6.47-13.36,6.06s-9.89-2.86-12.57-7.7a6.47,6.47,0,0,1,.15-6.7c1.51-2,3.67.1,5.31.67C681,230.83,687.7,233.53,694.59,236.14Z"/><path class="cls-12" d="M1083.64,221.16a9.85,9.85,0,0,1-9.86-10.25,10.16,10.16,0,1,1,20.31,0A10,10,0,0,1,1083.64,221.16Z"/><path class="cls-12" d="M968.8,222.71c-.13,5.15-5.46,10.26-10.51,10.08a10.76,10.76,0,0,1-10.15-10.88,10.63,10.63,0,0,1,10.15-9.73C963.94,212.21,968.94,217.22,968.8,222.71Z"/><path class="cls-15" d="M221.57,658.82c-.08,12.23-7.12,20-18.09,19.88-8-.07-13.87-6.54-13.77-15.13.14-11.88,9.77-18.56,17.68-18.1C216,646,221.61,650.85,221.57,658.82Z"/><path class="cls-15" d="M208.72,611.88c.05,4-2.62,7.06-6.22,6.76-4-.34-5.76-3-5.86-6.78-.1-4,2.66-7.2,6.1-7.12S208.67,607.81,208.72,611.88Z"/><path class="cls-15" d="M231.36,638.86c-4,.48-4.74-2.27-4.78-5.61,0-3.52,3-7.66,5.91-7.44,3.42.26,6,1.77,6,5.85C238.57,636.36,236.25,638.84,231.36,638.86Z"/><path class="cls-15" d="M179.57,629.56a7.2,7.2,0,0,1-6.7,7.21c-3.89.15-5.25-2.06-5.26-5.6,0-4.11,2.88-7.67,6.38-7.32C177.25,624.18,179.57,625.85,179.57,629.56Z"/><path class="cls-15" d="M322.64,655.38c0,12.48-4.89,19.31-16.61,20.83-8.65,1.13-16.39-1.91-18.17-11.85-1.63-9.14.15-17.79,7.47-23.44,5.44-4.2,12.64-4.42,19.36-1.21,5.6,2.67,8.07,7.12,7.95,13.18C322.63,653.72,322.64,654.55,322.64,655.38Z"/><path class="cls-15" d="M293.49,602.7c0-2.46,3.42-6.15,7.25-6.08,3.62.07,5.9,3.23,5.75,7.84s-3.73,5.87-7.18,6S293.31,608.6,293.49,602.7Z"/><path class="cls-15" d="M281.59,622.52c.15,4.53-3.17,8.28-6.58,8.24s-4.47-2.19-4.49-5.26c0-4.21,2.71-7.93,6-7.71A5.14,5.14,0,0,1,281.59,622.52Z"/><path class="cls-15" d="M323.55,626.81c-.05-3.78,3.2-7.86,6-8,4-.2,7,2.43,7,6a7.74,7.74,0,0,1-7.92,7.8C324.78,632.4,324.17,629.32,323.55,626.81Z"/><path class="cls-16" d="M1042.74,674.56c0-10,7.16-18,16.1-18s15.18,7,15.19,16.8c0,10.82-7.78,19.09-18,19.18C1048.24,692.59,1042.71,685.09,1042.74,674.56Z"/><path class="cls-16" d="M1070.84,645.72c-5.1,0-7.22-2.29-7.19-7.79,0-4.4,2.86-7.86,6.54-7.95,4.46-.1,7.9,3.58,7.87,8.44C1078,643.44,1075.77,645.72,1070.84,645.72Z"/><path class="cls-16" d="M1041,624.21c0,5.62-3,8.72-7.9,8.64-3.45-.05-6.3-1-6.24-5.29.07-5.41,3.91-9.89,8.64-9.68C1039.7,618.07,1040.89,621,1041,624.21Z"/><path class="cls-16" d="M1030.33,659.45a8.25,8.25,0,0,1-7.72,8.1c-3.33.22-5.74-2.51-5.77-6.55s3.27-8.08,6.46-8.2A6.51,6.51,0,0,1,1030.33,659.45Z"/><path class="cls-16" d="M817.56,644.4c5.26-.47,9.29,2,11.88,6.47,3.57,6.12,4.63,12.79,2.36,19.63-1.86,5.62-7.25,8-13.81,6.5-11.47-2.61-17.48-20.32-9.86-28.84A10.38,10.38,0,0,1,817.56,644.4Z"/><path class="cls-16" d="M807.24,614.57c0,5-3.62,9.77-7.28,9.83-3.94.05-7.18-4.1-7.17-9.17,0-4.65,4-9.57,7.71-9.4C804.67,606,807.29,609.41,807.24,614.57Z"/><path class="cls-16" d="M836.25,628.45c-.06,4.57-3.12,7.49-7.63,7.26-3.43-.17-6.33-3.8-6.23-7.77s3.16-7.45,6.58-7.31A7.46,7.46,0,0,1,836.25,628.45Z"/><path class="cls-16" d="M784.35,645.35c.6-2.22.41-5.31,4-5.69,2.85-.31,6,3.41,5.74,6.87-.22,2.79-1.14,5.31-4.62,5.36C786.81,651.93,784.38,648.88,784.35,645.35Z"/><path class="cls-13" d="M600.46,683.72c2,.08,4.75-.38,7.25.8,1.36.65,2.68,1.43,2.64,3.24a3.49,3.49,0,0,1-2.54,3.33c-5.9,2.09-11.68,1.16-17.33-1a3.36,3.36,0,0,1-2.34-3c0-1.26,1.5-1.63,2.5-2.17C593.56,683.39,596.74,683.72,600.46,683.72Z"/><path class="cls-13" d="M548.31,708.94c-1.84,0-3.82.14-3.81-2.6,0-3.87,6.59-9.35,11.38-9.53,2.79-.11,4,1.69,4,4C559.94,704.88,553.9,709,548.31,708.94Z"/><path class="cls-13" d="M635.16,692.87c2.11.3,5,1.45,4.6,4.91-.48,4.15-4.07,4.63-7.56,4.71-2.9.06-5.48-.5-5.83-3.92C626,695.32,629.72,692.77,635.16,692.87Z"/><path class="cls-13" d="M720.14,713.39c-5.15,0-10.31.09-15.45,0a24.22,24.22,0,0,1-10.93-3.11c-1.32-.72-2.64-1.65-2.69-3.33-.05-1.84,1.5-2.53,2.88-3a33.83,33.83,0,0,1,7.11-2.22c12.59-1.81,25.15-2,37.5,1.66,2.74.82,5.84,1.79,5.71,5.27-.14,3.68-3.34,3.93-6.24,4.33A105.84,105.84,0,0,1,720.14,713.39Z"/><path class="cls-13" d="M713.76,675.05c4,.25,6.62.36,9.25.6,2,.19,4.27.85,4.73,2.93s-1.87,2.84-3.43,3.66a16.17,16.17,0,0,1-13.9.5c-1.86-.73-3.89-1.86-3.69-4.17s2.38-2.84,4.48-3A15.47,15.47,0,0,0,713.76,675.05Z"/><path class="cls-13" d="M756.74,695.78c-4.86,0-11.75-3.81-11.19-6.45.89-4.2,4.83-4,8-4.3,4.45-.38,8.84,3,8.66,6.33S759.75,695.77,756.74,695.78Z"/></g></g></svg>